<svg width="197" height="194" viewBox="0 0 197 194" fill="none" xmlns="http://www.w3.org/2000/svg">
<circle cx="30" cy="91" r="25" fill="black"/>
<circle cx="151" cy="42" r="24" fill="black"/>
<path d="M150.441 50.4545V46.9943H150.356C150.282 47.1136 150.177 47.2642 150.04 47.446C149.904 47.625 149.71 47.7855 149.457 47.9276C149.204 48.0668 148.867 48.1364 148.447 48.1364C147.901 48.1364 147.42 47.9986 147.002 47.723C146.585 47.4446 146.258 47.0526 146.022 46.5469C145.786 46.0384 145.668 45.4375 145.668 44.7443C145.668 44.0568 145.786 43.4602 146.022 42.9545C146.258 42.4489 146.586 42.0582 147.006 41.7827C147.427 41.5071 147.913 41.3693 148.464 41.3693C148.89 41.3693 149.227 41.4403 149.474 41.5824C149.724 41.7216 149.914 41.8807 150.045 42.0597C150.178 42.2358 150.282 42.3807 150.356 42.4943H150.475V41.4545H151.447V50.4545H150.441ZM148.583 47.233C148.987 47.233 149.327 47.1278 149.606 46.9176C149.884 46.7045 150.096 46.4105 150.241 46.0355C150.386 45.6577 150.458 45.2216 150.458 44.7273C150.458 44.2386 150.387 43.8111 150.245 43.4446C150.103 43.0753 149.893 42.7884 149.614 42.5838C149.336 42.3764 148.992 42.2727 148.583 42.2727C148.157 42.2727 147.802 42.3821 147.518 42.6009C147.237 42.8168 147.025 43.1108 146.883 43.483C146.744 43.8523 146.674 44.267 146.674 44.7273C146.674 45.1932 146.745 45.6165 146.887 45.9972C147.032 46.375 147.245 46.6761 147.526 46.9006C147.81 47.1222 148.163 47.233 148.583 47.233ZM156.339 39.2727V48H155.282V40.3807H155.231L153.1 41.7955V40.7216L155.282 39.2727H156.339Z" fill="white"/>
<path d="M178 42C178 56.9117 165.912 69 151 69C136.088 69 124 56.9117 124 42C124 27.0883 136.088 15 151 15C165.912 15 178 27.0883 178 42ZM125.7 42C125.7 55.9726 137.027 67.2996 151 67.2996C164.973 67.2996 176.3 55.9726 176.3 42C176.3 28.0274 164.973 16.7004 151 16.7004C137.027 16.7004 125.7 28.0274 125.7 42Z" fill="black"/>
<circle cx="150" cy="167" r="24" fill="black"/>
<path d="M148.597 175.455V171.994H148.512C148.438 172.114 148.333 172.264 148.197 172.446C148.06 172.625 147.866 172.786 147.613 172.928C147.36 173.067 147.023 173.136 146.603 173.136C146.058 173.136 145.576 172.999 145.158 172.723C144.741 172.445 144.414 172.053 144.178 171.547C143.942 171.038 143.825 170.438 143.825 169.744C143.825 169.057 143.942 168.46 144.178 167.955C144.414 167.449 144.742 167.058 145.163 166.783C145.583 166.507 146.069 166.369 146.62 166.369C147.046 166.369 147.383 166.44 147.63 166.582C147.88 166.722 148.07 166.881 148.201 167.06C148.335 167.236 148.438 167.381 148.512 167.494H148.631V166.455H149.603V175.455H148.597ZM146.739 172.233C147.143 172.233 147.484 172.128 147.762 171.918C148.04 171.705 148.252 171.411 148.397 171.036C148.542 170.658 148.614 170.222 148.614 169.727C148.614 169.239 148.543 168.811 148.401 168.445C148.259 168.075 148.049 167.788 147.771 167.584C147.492 167.376 147.148 167.273 146.739 167.273C146.313 167.273 145.958 167.382 145.674 167.601C145.393 167.817 145.181 168.111 145.039 168.483C144.9 168.852 144.83 169.267 144.83 169.727C144.83 170.193 144.901 170.616 145.043 170.997C145.188 171.375 145.401 171.676 145.683 171.901C145.967 172.122 146.319 172.233 146.739 172.233ZM151.427 173V172.233L154.308 169.08C154.646 168.71 154.924 168.389 155.143 168.116C155.362 167.841 155.523 167.582 155.629 167.341C155.737 167.097 155.79 166.841 155.79 166.574C155.79 166.267 155.717 166.001 155.569 165.777C155.424 165.553 155.225 165.379 154.972 165.257C154.719 165.135 154.435 165.074 154.12 165.074C153.785 165.074 153.492 165.143 153.242 165.283C152.995 165.419 152.803 165.611 152.667 165.858C152.533 166.105 152.467 166.395 152.467 166.727H151.461C151.461 166.216 151.579 165.767 151.815 165.381C152.05 164.994 152.371 164.693 152.778 164.477C153.187 164.261 153.646 164.153 154.154 164.153C154.665 164.153 155.119 164.261 155.513 164.477C155.908 164.693 156.218 164.984 156.442 165.351C156.667 165.717 156.779 166.125 156.779 166.574C156.779 166.895 156.721 167.209 156.604 167.516C156.491 167.82 156.292 168.159 156.008 168.534C155.727 168.906 155.336 169.361 154.836 169.898L152.876 171.994V172.062H156.933V173H151.427Z" fill="white"/>
<path d="M177 167C177 181.912 164.912 194 150 194C135.088 194 123 181.912 123 167C123 152.088 135.088 140 150 140C164.912 140 177 152.088 177 167ZM124.7 167C124.7 180.973 136.027 192.3 150 192.3C163.973 192.3 175.3 180.973 175.3 167C175.3 153.027 163.973 141.7 150 141.7C136.027 141.7 124.7 153.027 124.7 167Z" fill="black"/>
<path d="M88.5 55.1193C87.858 55.1193 87.3111 54.9446 86.8594 54.5952C86.4077 54.2429 86.0625 53.733 85.8239 53.0653C85.5852 52.3949 85.4659 51.5852 85.4659 50.6364C85.4659 49.6932 85.5852 48.8878 85.8239 48.2202C86.0653 47.5497 86.4119 47.0384 86.8636 46.6861C87.3182 46.331 87.8636 46.1534 88.5 46.1534C89.1364 46.1534 89.6804 46.331 90.1321 46.6861C90.5866 47.0384 90.9332 47.5497 91.1719 48.2202C91.4134 48.8878 91.5341 49.6932 91.5341 50.6364C91.5341 51.5852 91.4148 52.3949 91.1761 53.0653C90.9375 53.733 90.5923 54.2429 90.1406 54.5952C89.6889 54.9446 89.142 55.1193 88.5 55.1193ZM88.5 54.1818C89.1364 54.1818 89.6307 53.875 89.983 53.2614C90.3352 52.6477 90.5114 51.7727 90.5114 50.6364C90.5114 49.8807 90.4304 49.2372 90.2685 48.706C90.1094 48.1747 89.8793 47.7699 89.5781 47.4915C89.2798 47.2131 88.9205 47.0739 88.5 47.0739C87.8693 47.0739 87.3764 47.3849 87.0213 48.0071C86.6662 48.6264 86.4886 49.5028 86.4886 50.6364C86.4886 51.392 86.5682 52.0341 86.7273 52.5625C86.8864 53.0909 87.1151 53.4929 87.4134 53.7685C87.7145 54.044 88.0767 54.1818 88.5 54.1818Z" fill="black"/>
<path d="M86.6825 116.273V125H85.6257V117.381H85.5746L83.4439 118.795V117.722L85.6257 116.273H86.6825Z" fill="black"/>
<path d="M117 53L111.254 52.441L113.643 57.697L117 53ZM62 78L62.2069 78.4552L113.11 55.3173L112.903 54.8621L112.696 54.4069L61.7931 77.5448L62 78Z" fill="black"/>
<path d="M119 160L116.91 154.618L113.294 159.119L119 160ZM58 111L57.6869 111.39L115.179 157.572L115.492 157.182L115.805 156.792L58.3131 110.61L58 111Z" fill="black"/>
<path d="M27.4801 96.4545V92.9943H27.3949C27.321 93.1136 27.2159 93.2642 27.0795 93.446C26.9432 93.625 26.7486 93.7855 26.4957 93.9276C26.2429 94.0668 25.9063 94.1364 25.4858 94.1364C24.9403 94.1364 24.4588 93.9986 24.0412 93.723C23.6236 93.4446 23.2969 93.0526 23.0611 92.5469C22.8253 92.0384 22.7074 91.4375 22.7074 90.7443C22.7074 90.0568 22.8253 89.4602 23.0611 88.9545C23.2969 88.4489 23.625 88.0582 24.0455 87.7827C24.4659 87.5071 24.9517 87.3693 25.5028 87.3693C25.929 87.3693 26.2656 87.4403 26.5128 87.5824C26.7628 87.7216 26.9531 87.8807 27.0838 88.0597C27.2173 88.2358 27.321 88.3807 27.3949 88.4943H27.5142V87.4545H28.4858V96.4545H27.4801ZM25.6222 93.233C26.0256 93.233 26.3665 93.1278 26.6449 92.9176C26.9233 92.7045 27.1349 92.4105 27.2798 92.0355C27.4247 91.6577 27.4972 91.2216 27.4972 90.7273C27.4972 90.2386 27.4261 89.8111 27.2841 89.4446C27.142 89.0753 26.9318 88.7884 26.6534 88.5838C26.375 88.3764 26.0313 88.2727 25.6222 88.2727C25.196 88.2727 24.8409 88.3821 24.5568 88.6009C24.2756 88.8168 24.0639 89.1108 23.9219 89.483C23.7827 89.8523 23.7131 90.267 23.7131 90.7273C23.7131 91.1932 23.7841 91.6165 23.9261 91.9972C24.071 92.375 24.2841 92.6761 24.5653 92.9006C24.8494 93.1222 25.2017 93.233 25.6222 93.233ZM33.1562 94.1193C32.5142 94.1193 31.9673 93.9446 31.5156 93.5952C31.0639 93.2429 30.7188 92.733 30.4801 92.0653C30.2415 91.3949 30.1222 90.5852 30.1222 89.6364C30.1222 88.6932 30.2415 87.8878 30.4801 87.2202C30.7216 86.5497 31.0682 86.0384 31.5199 85.6861C31.9744 85.331 32.5199 85.1534 33.1562 85.1534C33.7926 85.1534 34.3366 85.331 34.7884 85.6861C35.2429 86.0384 35.5895 86.5497 35.8281 87.2202C36.0696 87.8878 36.1903 88.6932 36.1903 89.6364C36.1903 90.5852 36.071 91.3949 35.8324 92.0653C35.5938 92.733 35.2486 93.2429 34.7969 93.5952C34.3452 93.9446 33.7983 94.1193 33.1562 94.1193ZM33.1562 93.1818C33.7926 93.1818 34.2869 92.875 34.6392 92.2614C34.9915 91.6477 35.1676 90.7727 35.1676 89.6364C35.1676 88.8807 35.0866 88.2372 34.9247 87.706C34.7656 87.1747 34.5355 86.7699 34.2344 86.4915C33.9361 86.2131 33.5767 86.0739 33.1562 86.0739C32.5256 86.0739 32.0327 86.3849 31.6776 87.0071C31.3224 87.6264 31.1449 88.5028 31.1449 89.6364C31.1449 90.392 31.2244 91.0341 31.3835 91.5625C31.5426 92.0909 31.7713 92.4929 32.0696 92.7685C32.3707 93.044 32.733 93.1818 33.1562 93.1818Z" fill="white"/>
<path d="M144.703 12.1193C144.061 12.1193 143.514 11.9446 143.062 11.5952C142.611 11.2429 142.266 10.733 142.027 10.0653C141.788 9.39489 141.669 8.58523 141.669 7.63636C141.669 6.69318 141.788 5.88778 142.027 5.22017C142.268 4.54972 142.615 4.03835 143.067 3.68608C143.521 3.33097 144.067 3.15341 144.703 3.15341C145.339 3.15341 145.884 3.33097 146.335 3.68608C146.79 4.03835 147.136 4.54972 147.375 5.22017C147.616 5.88778 147.737 6.69318 147.737 7.63636C147.737 8.58523 147.618 9.39489 147.379 10.0653C147.141 10.733 146.795 11.2429 146.344 11.5952C145.892 11.9446 145.345 12.1193 144.703 12.1193ZM144.703 11.1818C145.339 11.1818 145.834 10.875 146.186 10.2614C146.538 9.64773 146.714 8.77273 146.714 7.63636C146.714 6.88068 146.634 6.23722 146.472 5.70597C146.313 5.17472 146.082 4.76989 145.781 4.49148C145.483 4.21307 145.124 4.07386 144.703 4.07386C144.072 4.07386 143.58 4.38494 143.224 5.0071C142.869 5.62642 142.692 6.50284 142.692 7.63636C142.692 8.39205 142.771 9.03409 142.93 9.5625C143.089 10.0909 143.318 10.4929 143.616 10.7685C143.918 11.044 144.28 11.1818 144.703 11.1818ZM150.569 10.8068L150.501 11.267C150.452 11.5909 150.379 11.9375 150.279 12.3068C150.183 12.6761 150.082 13.0241 149.977 13.3509C149.871 13.6776 149.785 13.9375 149.717 14.1307H148.95C148.987 13.9489 149.035 13.7088 149.094 13.4105C149.154 13.1122 149.214 12.7784 149.273 12.4091C149.336 12.0426 149.387 11.6676 149.427 11.2841L149.478 10.8068H150.569ZM154.44 3.27273V12H153.384V4.38068H153.332L151.202 5.79545V4.72159L153.384 3.27273H154.44Z" fill="black"/>
<path d="M144.703 133.119C144.061 133.119 143.514 132.945 143.062 132.595C142.611 132.243 142.266 131.733 142.027 131.065C141.788 130.395 141.669 129.585 141.669 128.636C141.669 127.693 141.788 126.888 142.027 126.22C142.268 125.55 142.615 125.038 143.067 124.686C143.521 124.331 144.067 124.153 144.703 124.153C145.339 124.153 145.884 124.331 146.335 124.686C146.79 125.038 147.136 125.55 147.375 126.22C147.616 126.888 147.737 127.693 147.737 128.636C147.737 129.585 147.618 130.395 147.379 131.065C147.141 131.733 146.795 132.243 146.344 132.595C145.892 132.945 145.345 133.119 144.703 133.119ZM144.703 132.182C145.339 132.182 145.834 131.875 146.186 131.261C146.538 130.648 146.714 129.773 146.714 128.636C146.714 127.881 146.634 127.237 146.472 126.706C146.313 126.175 146.082 125.77 145.781 125.491C145.483 125.213 145.124 125.074 144.703 125.074C144.072 125.074 143.58 125.385 143.224 126.007C142.869 126.626 142.692 127.503 142.692 128.636C142.692 129.392 142.771 130.034 142.93 130.562C143.089 131.091 143.318 131.493 143.616 131.768C143.918 132.044 144.28 132.182 144.703 132.182ZM150.569 131.807L150.501 132.267C150.452 132.591 150.379 132.938 150.279 133.307C150.183 133.676 150.082 134.024 149.977 134.351C149.871 134.678 149.785 134.938 149.717 135.131H148.95C148.987 134.949 149.035 134.709 149.094 134.411C149.154 134.112 149.214 133.778 149.273 133.409C149.336 133.043 149.387 132.668 149.427 132.284L149.478 131.807H150.569ZM154.44 124.273V133H153.384V125.381H153.332L151.202 126.795V125.722L153.384 124.273H154.44Z" fill="black"/>
</svg>
