<svg width="186" height="139" viewBox="0 0 186 139" fill="none" xmlns="http://www.w3.org/2000/svg">
<circle cx="44.1322" cy="109.501" r="25" fill="black"/>
<circle cx="145" cy="112" r="24" fill="black"/>
<path d="M144.441 120.455V116.994H144.356C144.282 117.114 144.177 117.264 144.04 117.446C143.904 117.625 143.71 117.786 143.457 117.928C143.204 118.067 142.867 118.136 142.447 118.136C141.901 118.136 141.42 117.999 141.002 117.723C140.585 117.445 140.258 117.053 140.022 116.547C139.786 116.038 139.668 115.438 139.668 114.744C139.668 114.057 139.786 113.46 140.022 112.955C140.258 112.449 140.586 112.058 141.006 111.783C141.427 111.507 141.913 111.369 142.464 111.369C142.89 111.369 143.227 111.44 143.474 111.582C143.724 111.722 143.914 111.881 144.045 112.06C144.178 112.236 144.282 112.381 144.356 112.494H144.475V111.455H145.447V120.455H144.441ZM142.583 117.233C142.987 117.233 143.327 117.128 143.606 116.918C143.884 116.705 144.096 116.411 144.241 116.036C144.386 115.658 144.458 115.222 144.458 114.727C144.458 114.239 144.387 113.811 144.245 113.445C144.103 113.075 143.893 112.788 143.614 112.584C143.336 112.376 142.992 112.273 142.583 112.273C142.157 112.273 141.802 112.382 141.518 112.601C141.237 112.817 141.025 113.111 140.883 113.483C140.744 113.852 140.674 114.267 140.674 114.727C140.674 115.193 140.745 115.616 140.887 115.997C141.032 116.375 141.245 116.676 141.526 116.901C141.81 117.122 142.163 117.233 142.583 117.233ZM150.339 109.273V118H149.282V110.381H149.231L147.1 111.795V110.722L149.282 109.273H150.339Z" fill="white"/>
<path d="M172 112C172 126.912 159.912 139 145 139C130.088 139 118 126.912 118 112C118 97.0883 130.088 85 145 85C159.912 85 172 97.0883 172 112ZM119.7 112C119.7 125.973 131.027 137.3 145 137.3C158.973 137.3 170.3 125.973 170.3 112C170.3 98.0274 158.973 86.7004 145 86.7004C131.027 86.7004 119.7 98.0274 119.7 112Z" fill="black"/>
<path d="M4.13217 52.5009L3.63605 52.4388L4.13217 52.5009ZM42.1322 21.0009L42.1354 21.5009L42.1322 21.0009ZM80.6322 52.5009L80.1358 52.5615L80.6322 52.5009ZM64.1322 85.5009L69.7377 84.1184L65.7376 79.9551L64.1322 85.5009ZM26.6322 90.5009C26.9555 90.1195 26.9555 90.1195 26.9553 90.1194C26.9552 90.1193 26.955 90.1191 26.9547 90.1188C26.954 90.1183 26.953 90.1174 26.9516 90.1163C26.9489 90.1139 26.9446 90.1103 26.939 90.1054C26.9276 90.0957 26.9104 90.081 26.8876 90.0614C26.8419 90.0221 26.7738 89.9633 26.6848 89.8856C26.5068 89.7301 26.2452 89.4992 25.9125 89.1989C25.2471 88.5982 24.2977 87.7199 23.1646 86.6123C20.8976 84.3963 17.8989 81.2659 14.9686 77.6056C12.0368 73.9435 9.18353 69.7635 7.19759 65.4487C5.20998 61.1303 4.10827 56.7141 4.6283 52.5631L4.13217 52.5009L3.63605 52.4388C3.08418 56.844 4.25903 61.4559 6.28919 65.8668C8.32102 70.2813 11.2268 74.5318 14.1879 78.2306C17.1506 81.9313 20.1789 85.0922 22.4656 87.3274C23.6093 88.4454 24.5685 89.3327 25.2424 89.9411C25.5794 90.2454 25.8451 90.4799 26.0271 90.6388C26.118 90.7182 26.188 90.7787 26.2355 90.8196C26.2593 90.84 26.2774 90.8555 26.2897 90.866C26.2958 90.8713 26.3005 90.8752 26.3037 90.878C26.3053 90.8793 26.3066 90.8804 26.3074 90.8811C26.3079 90.8815 26.3082 90.8818 26.3084 90.882C26.3087 90.8822 26.3089 90.8824 26.6322 90.5009ZM4.13217 52.5009L4.6283 52.5631C6.98799 33.7272 23.067 21.6232 42.1354 21.5009L42.1322 21.0009L42.129 20.5009C22.6469 20.6259 6.06847 33.0224 3.63605 52.4388L4.13217 52.5009ZM42.1322 21.0009L42.1354 21.5009C61.3538 21.3776 77.8202 33.5735 80.1358 52.5615L80.6322 52.5009L81.1285 52.4404C78.7407 32.8613 61.7625 20.375 42.129 20.5009L42.1322 21.0009ZM80.6322 52.5009L80.1358 52.5615C80.8873 58.7235 78.9289 64.7274 76.1042 69.8922C73.2812 75.0541 69.6154 79.3363 67.0173 82.0361L67.3776 82.3828L67.7378 82.7295C70.3699 79.9944 74.1004 75.6402 76.9815 70.3721C79.861 65.107 81.9147 58.8874 81.1285 52.4404L80.6322 52.5009Z" fill="black"/>
<path d="M105.132 52.5009L104.636 52.4388L105.132 52.5009ZM143.132 21.0009L143.135 21.5009L143.132 21.0009ZM181.632 52.5009L181.136 52.5615L181.632 52.5009ZM165.132 85.5009L170.738 84.1184L166.738 79.9551L165.132 85.5009ZM127.632 90.5009C127.955 90.1195 127.955 90.1195 127.955 90.1194C127.955 90.1193 127.955 90.1191 127.955 90.1188C127.954 90.1183 127.953 90.1174 127.952 90.1163C127.949 90.1139 127.945 90.1103 127.939 90.1054C127.928 90.0957 127.91 90.081 127.888 90.0614C127.842 90.0221 127.774 89.9633 127.685 89.8856C127.507 89.7301 127.245 89.4992 126.913 89.1989C126.247 88.5982 125.298 87.7199 124.165 86.6123C121.898 84.3963 118.899 81.2659 115.969 77.6056C113.037 73.9435 110.184 69.7635 108.198 65.4487C106.21 61.1303 105.108 56.7141 105.628 52.5631L105.132 52.5009L104.636 52.4388C104.084 56.844 105.259 61.4559 107.289 65.8668C109.321 70.2813 112.227 74.5318 115.188 78.2306C118.151 81.9313 121.179 85.0922 123.466 87.3274C124.609 88.4454 125.568 89.3327 126.242 89.9411C126.579 90.2454 126.845 90.4799 127.027 90.6388C127.118 90.7182 127.188 90.7787 127.236 90.8196C127.259 90.84 127.277 90.8555 127.29 90.866C127.296 90.8713 127.301 90.8752 127.304 90.878C127.305 90.8793 127.307 90.8804 127.307 90.8811C127.308 90.8815 127.308 90.8818 127.308 90.882C127.309 90.8822 127.309 90.8824 127.632 90.5009ZM105.132 52.5009L105.628 52.5631C107.988 33.7272 124.067 21.6232 143.135 21.5009L143.132 21.0009L143.129 20.5009C123.647 20.6259 107.068 33.0224 104.636 52.4388L105.132 52.5009ZM143.132 21.0009L143.135 21.5009C162.354 21.3776 178.82 33.5735 181.136 52.5615L181.632 52.5009L182.128 52.4404C179.741 32.8613 162.763 20.375 143.129 20.5009L143.132 21.0009ZM181.632 52.5009L181.136 52.5615C181.887 58.7235 179.929 64.7274 177.104 69.8922C174.281 75.0541 170.615 79.3363 168.017 82.0361L168.378 82.3828L168.738 82.7295C171.37 79.9944 175.1 75.6402 177.982 70.3721C180.861 65.107 182.915 58.8874 182.128 52.4404L181.632 52.5009Z" fill="black"/>
<path d="M44.6825 3.27273V12H43.6257V4.38068H43.5746L41.4439 5.79545V4.72159L43.6257 3.27273H44.6825Z" fill="black"/>
<path d="M90.5 130.119C89.858 130.119 89.3111 129.945 88.8594 129.595C88.4077 129.243 88.0625 128.733 87.8239 128.065C87.5852 127.395 87.4659 126.585 87.4659 125.636C87.4659 124.693 87.5852 123.888 87.8239 123.22C88.0653 122.55 88.4119 122.038 88.8636 121.686C89.3182 121.331 89.8636 121.153 90.5 121.153C91.1364 121.153 91.6804 121.331 92.1321 121.686C92.5866 122.038 92.9332 122.55 93.1719 123.22C93.4134 123.888 93.5341 124.693 93.5341 125.636C93.5341 126.585 93.4148 127.395 93.1761 128.065C92.9375 128.733 92.5923 129.243 92.1406 129.595C91.6889 129.945 91.142 130.119 90.5 130.119ZM90.5 129.182C91.1364 129.182 91.6307 128.875 91.983 128.261C92.3352 127.648 92.5114 126.773 92.5114 125.636C92.5114 124.881 92.4304 124.237 92.2685 123.706C92.1094 123.175 91.8793 122.77 91.5781 122.491C91.2798 122.213 90.9205 122.074 90.5 122.074C89.8693 122.074 89.3764 122.385 89.0213 123.007C88.6662 123.626 88.4886 124.503 88.4886 125.636C88.4886 126.392 88.5682 127.034 88.7273 127.562C88.8864 128.091 89.1151 128.493 89.4134 128.768C89.7145 129.044 90.0767 129.182 90.5 129.182Z" fill="black"/>
<path d="M147.683 3.27273V12H146.626V4.38068H146.575L144.444 5.79545V4.72159L146.626 3.27273H147.683Z" fill="black"/>
<path d="M90.5 103.119C89.858 103.119 89.3111 102.945 88.8594 102.595C88.4077 102.243 88.0625 101.733 87.8239 101.065C87.5852 100.395 87.4659 99.5852 87.4659 98.6364C87.4659 97.6932 87.5852 96.8878 87.8239 96.2202C88.0653 95.5497 88.4119 95.0384 88.8636 94.6861C89.3182 94.331 89.8636 94.1534 90.5 94.1534C91.1364 94.1534 91.6804 94.331 92.1321 94.6861C92.5866 95.0384 92.9332 95.5497 93.1719 96.2202C93.4134 96.8878 93.5341 97.6932 93.5341 98.6364C93.5341 99.5852 93.4148 100.395 93.1761 101.065C92.9375 101.733 92.5923 102.243 92.1406 102.595C91.6889 102.945 91.142 103.119 90.5 103.119ZM90.5 102.182C91.1364 102.182 91.6307 101.875 91.983 101.261C92.3352 100.648 92.5114 99.7727 92.5114 98.6364C92.5114 97.8807 92.4304 97.2372 92.2685 96.706C92.1094 96.1747 91.8793 95.7699 91.5781 95.4915C91.2798 95.2131 90.9205 95.0739 90.5 95.0739C89.8693 95.0739 89.3764 95.3849 89.0213 96.0071C88.6662 96.6264 88.4886 97.5028 88.4886 98.6364C88.4886 99.392 88.5682 100.034 88.7273 100.562C88.8864 101.091 89.1151 101.493 89.4134 101.768C89.7145 102.044 90.0767 102.182 90.5 102.182Z" fill="black"/>
<path d="M115 109.5L110 106.613V112.387L115 109.5ZM71 109.5V110H110.5V109.5V109H71V109.5Z" fill="black"/>
<path d="M71 115L76 117.887V112.113L71 115ZM75.5 115V115.5H115V115V114.5H75.5V115Z" fill="black"/>
<path d="M41.4801 116.455V112.994H41.3949C41.321 113.114 41.2159 113.264 41.0795 113.446C40.9432 113.625 40.7486 113.786 40.4957 113.928C40.2429 114.067 39.9063 114.136 39.4858 114.136C38.9403 114.136 38.4588 113.999 38.0412 113.723C37.6236 113.445 37.2969 113.053 37.0611 112.547C36.8253 112.038 36.7074 111.438 36.7074 110.744C36.7074 110.057 36.8253 109.46 37.0611 108.955C37.2969 108.449 37.625 108.058 38.0455 107.783C38.4659 107.507 38.9517 107.369 39.5028 107.369C39.929 107.369 40.2656 107.44 40.5128 107.582C40.7628 107.722 40.9531 107.881 41.0838 108.06C41.2173 108.236 41.321 108.381 41.3949 108.494H41.5142V107.455H42.4858V116.455H41.4801ZM39.6222 113.233C40.0256 113.233 40.3665 113.128 40.6449 112.918C40.9233 112.705 41.1349 112.411 41.2798 112.036C41.4247 111.658 41.4972 111.222 41.4972 110.727C41.4972 110.239 41.4261 109.811 41.2841 109.445C41.142 109.075 40.9318 108.788 40.6534 108.584C40.375 108.376 40.0313 108.273 39.6222 108.273C39.196 108.273 38.8409 108.382 38.5568 108.601C38.2756 108.817 38.0639 109.111 37.9219 109.483C37.7827 109.852 37.7131 110.267 37.7131 110.727C37.7131 111.193 37.7841 111.616 37.9261 111.997C38.071 112.375 38.2841 112.676 38.5653 112.901C38.8494 113.122 39.2017 113.233 39.6222 113.233ZM47.1562 114.119C46.5142 114.119 45.9673 113.945 45.5156 113.595C45.0639 113.243 44.7188 112.733 44.4801 112.065C44.2415 111.395 44.1222 110.585 44.1222 109.636C44.1222 108.693 44.2415 107.888 44.4801 107.22C44.7216 106.55 45.0682 106.038 45.5199 105.686C45.9744 105.331 46.5199 105.153 47.1562 105.153C47.7926 105.153 48.3366 105.331 48.7884 105.686C49.2429 106.038 49.5895 106.55 49.8281 107.22C50.0696 107.888 50.1903 108.693 50.1903 109.636C50.1903 110.585 50.071 111.395 49.8324 112.065C49.5938 112.733 49.2486 113.243 48.7969 113.595C48.3452 113.945 47.7983 114.119 47.1562 114.119ZM47.1562 113.182C47.7926 113.182 48.2869 112.875 48.6392 112.261C48.9915 111.648 49.1676 110.773 49.1676 109.636C49.1676 108.881 49.0866 108.237 48.9247 107.706C48.7656 107.175 48.5355 106.77 48.2344 106.491C47.9361 106.213 47.5767 106.074 47.1562 106.074C46.5256 106.074 46.0327 106.385 45.6776 107.007C45.3224 107.626 45.1449 108.503 45.1449 109.636C45.1449 110.392 45.2244 111.034 45.3835 111.562C45.5426 112.091 45.7713 112.493 46.0696 112.768C46.3707 113.044 46.733 113.182 47.1562 113.182Z" fill="white"/>
</svg>
