<svg width="189" height="139" viewBox="0 0 189 139" fill="none" xmlns="http://www.w3.org/2000/svg">
<circle cx="47.1322" cy="109.501" r="25" fill="black"/>
<circle cx="148" cy="112" r="24" fill="black"/>
<path d="M147.441 120.455V116.994H147.356C147.282 117.114 147.177 117.264 147.04 117.446C146.904 117.625 146.71 117.786 146.457 117.928C146.204 118.067 145.867 118.136 145.447 118.136C144.901 118.136 144.42 117.999 144.002 117.723C143.585 117.445 143.258 117.053 143.022 116.547C142.786 116.038 142.668 115.438 142.668 114.744C142.668 114.057 142.786 113.46 143.022 112.955C143.258 112.449 143.586 112.058 144.006 111.783C144.427 111.507 144.913 111.369 145.464 111.369C145.89 111.369 146.227 111.44 146.474 111.582C146.724 111.722 146.914 111.881 147.045 112.06C147.178 112.236 147.282 112.381 147.356 112.494H147.475V111.455H148.447V120.455H147.441ZM145.583 117.233C145.987 117.233 146.327 117.128 146.606 116.918C146.884 116.705 147.096 116.411 147.241 116.036C147.386 115.658 147.458 115.222 147.458 114.727C147.458 114.239 147.387 113.811 147.245 113.445C147.103 113.075 146.893 112.788 146.614 112.584C146.336 112.376 145.992 112.273 145.583 112.273C145.157 112.273 144.802 112.382 144.518 112.601C144.237 112.817 144.025 113.111 143.883 113.483C143.744 113.852 143.674 114.267 143.674 114.727C143.674 115.193 143.745 115.616 143.887 115.997C144.032 116.375 144.245 116.676 144.526 116.901C144.81 117.122 145.163 117.233 145.583 117.233ZM153.339 109.273V118H152.282V110.381H152.231L150.1 111.795V110.722L152.282 109.273H153.339Z" fill="white"/>
<path d="M175 112C175 126.912 162.912 139 148 139C133.088 139 121 126.912 121 112C121 97.0883 133.088 85 148 85C162.912 85 175 97.0883 175 112ZM122.7 112C122.7 125.973 134.027 137.3 148 137.3C161.973 137.3 173.3 125.973 173.3 112C173.3 98.0274 161.973 86.7004 148 86.7004C134.027 86.7004 122.7 98.0274 122.7 112Z" fill="black"/>
<path d="M7.13217 52.5009L6.63605 52.4388L7.13217 52.5009ZM45.1322 21.0009L45.1354 21.5009L45.1322 21.0009ZM83.6322 52.5009L83.1358 52.5615L83.6322 52.5009ZM67.1322 85.5009L72.7377 84.1184L68.7376 79.9551L67.1322 85.5009ZM29.6322 90.5009C29.9555 90.1195 29.9555 90.1195 29.9553 90.1194C29.9552 90.1193 29.955 90.1191 29.9547 90.1188C29.954 90.1183 29.953 90.1174 29.9516 90.1163C29.9489 90.1139 29.9446 90.1103 29.939 90.1054C29.9276 90.0957 29.9104 90.081 29.8876 90.0614C29.8419 90.0221 29.7738 89.9633 29.6848 89.8856C29.5068 89.7301 29.2452 89.4992 28.9125 89.1989C28.2471 88.5982 27.2977 87.7199 26.1646 86.6123C23.8976 84.3963 20.8989 81.2659 17.9686 77.6056C15.0368 73.9435 12.1835 69.7635 10.1976 65.4487C8.20998 61.1303 7.10827 56.7141 7.6283 52.5631L7.13217 52.5009L6.63605 52.4388C6.08418 56.844 7.25903 61.4559 9.28919 65.8668C11.321 70.2813 14.2268 74.5318 17.1879 78.2306C20.1506 81.9313 23.1789 85.0922 25.4656 87.3274C26.6093 88.4454 27.5685 89.3327 28.2424 89.9411C28.5794 90.2454 28.8451 90.4799 29.0271 90.6388C29.118 90.7182 29.188 90.7787 29.2355 90.8196C29.2593 90.84 29.2774 90.8555 29.2897 90.866C29.2958 90.8713 29.3005 90.8752 29.3037 90.878C29.3053 90.8793 29.3066 90.8804 29.3074 90.8811C29.3079 90.8815 29.3082 90.8818 29.3084 90.882C29.3087 90.8822 29.3089 90.8824 29.6322 90.5009ZM7.13217 52.5009L7.6283 52.5631C9.98799 33.7272 26.067 21.6232 45.1354 21.5009L45.1322 21.0009L45.129 20.5009C25.6469 20.6259 9.06847 33.0224 6.63605 52.4388L7.13217 52.5009ZM45.1322 21.0009L45.1354 21.5009C64.3538 21.3776 80.8202 33.5735 83.1358 52.5615L83.6322 52.5009L84.1285 52.4404C81.7407 32.8613 64.7625 20.375 45.129 20.5009L45.1322 21.0009ZM83.6322 52.5009L83.1358 52.5615C83.8873 58.7235 81.9289 64.7274 79.1042 69.8922C76.2812 75.0541 72.6154 79.3363 70.0173 82.0361L70.3776 82.3828L70.7378 82.7295C73.3699 79.9944 77.1004 75.6402 79.9815 70.3721C82.861 65.107 84.9147 58.8874 84.1285 52.4404L83.6322 52.5009Z" fill="black"/>
<path d="M108.132 52.5009L107.636 52.4388L108.132 52.5009ZM146.132 21.0009L146.135 21.5009L146.132 21.0009ZM184.632 52.5009L184.136 52.5615L184.632 52.5009ZM168.132 85.5009L173.738 84.1184L169.738 79.9551L168.132 85.5009ZM130.632 90.5009C130.955 90.1195 130.955 90.1195 130.955 90.1194C130.955 90.1193 130.955 90.1191 130.955 90.1188C130.954 90.1183 130.953 90.1174 130.952 90.1163C130.949 90.1139 130.945 90.1103 130.939 90.1054C130.928 90.0957 130.91 90.081 130.888 90.0614C130.842 90.0221 130.774 89.9633 130.685 89.8856C130.507 89.7301 130.245 89.4992 129.913 89.1989C129.247 88.5982 128.298 87.7199 127.165 86.6123C124.898 84.3963 121.899 81.2659 118.969 77.6056C116.037 73.9435 113.184 69.7635 111.198 65.4487C109.21 61.1303 108.108 56.7141 108.628 52.5631L108.132 52.5009L107.636 52.4388C107.084 56.844 108.259 61.4559 110.289 65.8668C112.321 70.2813 115.227 74.5318 118.188 78.2306C121.151 81.9313 124.179 85.0922 126.466 87.3274C127.609 88.4454 128.568 89.3327 129.242 89.9411C129.579 90.2454 129.845 90.4799 130.027 90.6388C130.118 90.7182 130.188 90.7787 130.236 90.8196C130.259 90.84 130.277 90.8555 130.29 90.866C130.296 90.8713 130.301 90.8752 130.304 90.878C130.305 90.8793 130.307 90.8804 130.307 90.8811C130.308 90.8815 130.308 90.8818 130.308 90.882C130.309 90.8822 130.309 90.8824 130.632 90.5009ZM108.132 52.5009L108.628 52.5631C110.988 33.7272 127.067 21.6232 146.135 21.5009L146.132 21.0009L146.129 20.5009C126.647 20.6259 110.068 33.0224 107.636 52.4388L108.132 52.5009ZM146.132 21.0009L146.135 21.5009C165.354 21.3776 181.82 33.5735 184.136 52.5615L184.632 52.5009L185.128 52.4404C182.741 32.8613 165.763 20.375 146.129 20.5009L146.132 21.0009ZM184.632 52.5009L184.136 52.5615C184.887 58.7235 182.929 64.7274 180.104 69.8922C177.281 75.0541 173.615 79.3363 171.017 82.0361L171.378 82.3828L171.738 82.7295C174.37 79.9944 178.1 75.6402 180.982 70.3721C183.861 65.107 185.915 58.8874 185.128 52.4404L184.632 52.5009Z" fill="black"/>
<path d="M47.6825 3.27273V12H46.6257V4.38068H46.5746L44.4439 5.79545V4.72159L46.6257 3.27273H47.6825Z" fill="black"/>
<path d="M94.6825 121.273V130H93.6257V122.381H93.5746L91.4439 123.795V122.722L93.6257 121.273H94.6825Z" fill="black"/>
<path d="M149.5 12.1193C148.858 12.1193 148.311 11.9446 147.859 11.5952C147.408 11.2429 147.063 10.733 146.824 10.0653C146.585 9.39489 146.466 8.58523 146.466 7.63636C146.466 6.69318 146.585 5.88778 146.824 5.22017C147.065 4.54972 147.412 4.03835 147.864 3.68608C148.318 3.33097 148.864 3.15341 149.5 3.15341C150.136 3.15341 150.68 3.33097 151.132 3.68608C151.587 4.03835 151.933 4.54972 152.172 5.22017C152.413 5.88778 152.534 6.69318 152.534 7.63636C152.534 8.58523 152.415 9.39489 152.176 10.0653C151.938 10.733 151.592 11.2429 151.141 11.5952C150.689 11.9446 150.142 12.1193 149.5 12.1193ZM149.5 11.1818C150.136 11.1818 150.631 10.875 150.983 10.2614C151.335 9.64773 151.511 8.77273 151.511 7.63636C151.511 6.88068 151.43 6.23722 151.268 5.70597C151.109 5.17472 150.879 4.76989 150.578 4.49148C150.28 4.21307 149.92 4.07386 149.5 4.07386C148.869 4.07386 148.376 4.38494 148.021 5.0071C147.666 5.62642 147.489 6.50284 147.489 7.63636C147.489 8.39205 147.568 9.03409 147.727 9.5625C147.886 10.0909 148.115 10.4929 148.413 10.7685C148.714 11.044 149.077 11.1818 149.5 11.1818Z" fill="black"/>
<path d="M93.5 103.119C92.858 103.119 92.3111 102.945 91.8594 102.595C91.4077 102.243 91.0625 101.733 90.8239 101.065C90.5852 100.395 90.4659 99.5852 90.4659 98.6364C90.4659 97.6932 90.5852 96.8878 90.8239 96.2202C91.0653 95.5497 91.4119 95.0384 91.8636 94.6861C92.3182 94.331 92.8636 94.1534 93.5 94.1534C94.1364 94.1534 94.6804 94.331 95.1321 94.6861C95.5866 95.0384 95.9332 95.5497 96.1719 96.2202C96.4134 96.8878 96.5341 97.6932 96.5341 98.6364C96.5341 99.5852 96.4148 100.395 96.1761 101.065C95.9375 101.733 95.5923 102.243 95.1406 102.595C94.6889 102.945 94.142 103.119 93.5 103.119ZM93.5 102.182C94.1364 102.182 94.6307 101.875 94.983 101.261C95.3352 100.648 95.5114 99.7727 95.5114 98.6364C95.5114 97.8807 95.4304 97.2372 95.2685 96.706C95.1094 96.1747 94.8793 95.7699 94.5781 95.4915C94.2798 95.2131 93.9205 95.0739 93.5 95.0739C92.8693 95.0739 92.3764 95.3849 92.0213 96.0071C91.6662 96.6264 91.4886 97.5028 91.4886 98.6364C91.4886 99.392 91.5682 100.034 91.7273 100.562C91.8864 101.091 92.1151 101.493 92.4134 101.768C92.7145 102.044 93.0767 102.182 93.5 102.182Z" fill="black"/>
<path d="M118 109.5L113 106.613V112.387L118 109.5ZM74 109.5V110H113.5V109.5V109H74V109.5Z" fill="black"/>
<path d="M74 115L79 117.887V112.113L74 115ZM78.5 115V115.5H118V115V114.5H78.5V115Z" fill="black"/>
<path d="M44.4801 116.455V112.994H44.3949C44.321 113.114 44.2159 113.264 44.0795 113.446C43.9432 113.625 43.7486 113.786 43.4957 113.928C43.2429 114.067 42.9063 114.136 42.4858 114.136C41.9403 114.136 41.4588 113.999 41.0412 113.723C40.6236 113.445 40.2969 113.053 40.0611 112.547C39.8253 112.038 39.7074 111.438 39.7074 110.744C39.7074 110.057 39.8253 109.46 40.0611 108.955C40.2969 108.449 40.625 108.058 41.0455 107.783C41.4659 107.507 41.9517 107.369 42.5028 107.369C42.929 107.369 43.2656 107.44 43.5128 107.582C43.7628 107.722 43.9531 107.881 44.0838 108.06C44.2173 108.236 44.321 108.381 44.3949 108.494H44.5142V107.455H45.4858V116.455H44.4801ZM42.6222 113.233C43.0256 113.233 43.3665 113.128 43.6449 112.918C43.9233 112.705 44.1349 112.411 44.2798 112.036C44.4247 111.658 44.4972 111.222 44.4972 110.727C44.4972 110.239 44.4261 109.811 44.2841 109.445C44.142 109.075 43.9318 108.788 43.6534 108.584C43.375 108.376 43.0313 108.273 42.6222 108.273C42.196 108.273 41.8409 108.382 41.5568 108.601C41.2756 108.817 41.0639 109.111 40.9219 109.483C40.7827 109.852 40.7131 110.267 40.7131 110.727C40.7131 111.193 40.7841 111.616 40.9261 111.997C41.071 112.375 41.2841 112.676 41.5653 112.901C41.8494 113.122 42.2017 113.233 42.6222 113.233ZM50.1562 114.119C49.5142 114.119 48.9673 113.945 48.5156 113.595C48.0639 113.243 47.7188 112.733 47.4801 112.065C47.2415 111.395 47.1222 110.585 47.1222 109.636C47.1222 108.693 47.2415 107.888 47.4801 107.22C47.7216 106.55 48.0682 106.038 48.5199 105.686C48.9744 105.331 49.5199 105.153 50.1562 105.153C50.7926 105.153 51.3366 105.331 51.7884 105.686C52.2429 106.038 52.5895 106.55 52.8281 107.22C53.0696 107.888 53.1903 108.693 53.1903 109.636C53.1903 110.585 53.071 111.395 52.8324 112.065C52.5938 112.733 52.2486 113.243 51.7969 113.595C51.3452 113.945 50.7983 114.119 50.1562 114.119ZM50.1562 113.182C50.7926 113.182 51.2869 112.875 51.6392 112.261C51.9915 111.648 52.1676 110.773 52.1676 109.636C52.1676 108.881 52.0866 108.237 51.9247 107.706C51.7656 107.175 51.5355 106.77 51.2344 106.491C50.9361 106.213 50.5767 106.074 50.1562 106.074C49.5256 106.074 49.0327 106.385 48.6776 107.007C48.3224 107.626 48.1449 108.503 48.1449 109.636C48.1449 110.392 48.2244 111.034 48.3835 111.562C48.5426 112.091 48.7713 112.493 49.0696 112.768C49.3707 113.044 49.733 113.182 50.1562 113.182Z" fill="white"/>
</svg>
