<svg width="384" height="136" viewBox="0 0 384 136" fill="none" xmlns="http://www.w3.org/2000/svg">
<circle cx="44.1322" cy="109.501" r="25" fill="black"/>
<circle cx="143.132" cy="109.501" r="25" fill="black"/>
<circle cx="242.132" cy="109.501" r="25" fill="black"/>
<circle cx="346" cy="109" r="24" fill="black"/>
<path d="M4.13217 52.5009L3.63605 52.4388L4.13217 52.5009ZM42.1322 21.0009L42.1354 21.5009L42.1322 21.0009ZM80.6322 52.5009L80.1358 52.5615L80.6322 52.5009ZM64.1322 85.5009L69.7377 84.1184L65.7376 79.9551L64.1322 85.5009ZM26.6322 90.5009C26.9555 90.1195 26.9555 90.1195 26.9553 90.1194C26.9552 90.1193 26.955 90.1191 26.9547 90.1188C26.954 90.1183 26.953 90.1174 26.9516 90.1163C26.9489 90.1139 26.9446 90.1103 26.939 90.1054C26.9276 90.0957 26.9104 90.081 26.8876 90.0614C26.8419 90.0221 26.7738 89.9633 26.6848 89.8856C26.5068 89.7301 26.2452 89.4992 25.9125 89.1989C25.2471 88.5982 24.2977 87.7199 23.1646 86.6123C20.8976 84.3963 17.8989 81.2659 14.9686 77.6056C12.0368 73.9435 9.18353 69.7635 7.19759 65.4487C5.20998 61.1303 4.10827 56.7141 4.6283 52.5631L4.13217 52.5009L3.63605 52.4388C3.08418 56.844 4.25903 61.4559 6.28919 65.8668C8.32102 70.2813 11.2268 74.5318 14.1879 78.2306C17.1506 81.9313 20.1789 85.0922 22.4656 87.3274C23.6093 88.4454 24.5685 89.3327 25.2424 89.9411C25.5794 90.2454 25.8451 90.4799 26.0271 90.6388C26.118 90.7182 26.188 90.7787 26.2355 90.8196C26.2593 90.84 26.2774 90.8555 26.2897 90.866C26.2958 90.8713 26.3005 90.8752 26.3037 90.878C26.3053 90.8793 26.3066 90.8804 26.3074 90.8811C26.3079 90.8815 26.3082 90.8818 26.3084 90.882C26.3087 90.8822 26.3089 90.8824 26.6322 90.5009ZM4.13217 52.5009L4.6283 52.5631C6.98799 33.7272 23.067 21.6232 42.1354 21.5009L42.1322 21.0009L42.129 20.5009C22.6469 20.6259 6.06847 33.0224 3.63605 52.4388L4.13217 52.5009ZM42.1322 21.0009L42.1354 21.5009C61.3538 21.3776 77.8202 33.5735 80.1358 52.5615L80.6322 52.5009L81.1285 52.4404C78.7407 32.8613 61.7625 20.375 42.129 20.5009L42.1322 21.0009ZM80.6322 52.5009L80.1358 52.5615C80.8873 58.7235 78.9289 64.7274 76.1042 69.8922C73.2812 75.0541 69.6154 79.3363 67.0173 82.0361L67.3776 82.3828L67.7378 82.7295C70.3699 79.9944 74.1004 75.6402 76.9815 70.3721C79.861 65.107 81.9147 58.8874 81.1285 52.4404L80.6322 52.5009Z" fill="black"/>
<path d="M105.132 52.5009L104.636 52.4388L105.132 52.5009ZM143.132 21.0009L143.135 21.5009L143.132 21.0009ZM181.632 52.5009L181.136 52.5615L181.632 52.5009ZM165.132 85.5009L170.738 84.1184L166.738 79.9551L165.132 85.5009ZM127.632 90.5009C127.955 90.1195 127.955 90.1195 127.955 90.1194C127.955 90.1193 127.955 90.1191 127.955 90.1188C127.954 90.1183 127.953 90.1174 127.952 90.1163C127.949 90.1139 127.945 90.1103 127.939 90.1054C127.928 90.0957 127.91 90.081 127.888 90.0614C127.842 90.0221 127.774 89.9633 127.685 89.8856C127.507 89.7301 127.245 89.4992 126.913 89.1989C126.247 88.5982 125.298 87.7199 124.165 86.6123C121.898 84.3963 118.899 81.2659 115.969 77.6056C113.037 73.9435 110.184 69.7635 108.198 65.4487C106.21 61.1303 105.108 56.7141 105.628 52.5631L105.132 52.5009L104.636 52.4388C104.084 56.844 105.259 61.4559 107.289 65.8668C109.321 70.2813 112.227 74.5318 115.188 78.2306C118.151 81.9313 121.179 85.0922 123.466 87.3274C124.609 88.4454 125.568 89.3327 126.242 89.9411C126.579 90.2454 126.845 90.4799 127.027 90.6388C127.118 90.7182 127.188 90.7787 127.236 90.8196C127.259 90.84 127.277 90.8555 127.29 90.866C127.296 90.8713 127.301 90.8752 127.304 90.878C127.305 90.8793 127.307 90.8804 127.307 90.8811C127.308 90.8815 127.308 90.8818 127.308 90.882C127.309 90.8822 127.309 90.8824 127.632 90.5009ZM105.132 52.5009L105.628 52.5631C107.988 33.7272 124.067 21.6232 143.135 21.5009L143.132 21.0009L143.129 20.5009C123.647 20.6259 107.068 33.0224 104.636 52.4388L105.132 52.5009ZM143.132 21.0009L143.135 21.5009C162.354 21.3776 178.82 33.5735 181.136 52.5615L181.632 52.5009L182.128 52.4404C179.741 32.8613 162.763 20.375 143.129 20.5009L143.132 21.0009ZM181.632 52.5009L181.136 52.5615C181.887 58.7235 179.929 64.7274 177.104 69.8922C174.281 75.0541 170.615 79.3363 168.017 82.0361L168.378 82.3828L168.738 82.7295C171.37 79.9944 175.1 75.6402 177.982 70.3721C180.861 65.107 182.915 58.8874 182.128 52.4404L181.632 52.5009Z" fill="black"/>
<path d="M204.132 52.5009L203.636 52.4388L204.132 52.5009ZM242.132 21.0009L242.135 21.5009L242.132 21.0009ZM280.632 52.5009L280.136 52.5615L280.632 52.5009ZM264.132 85.5009L269.738 84.1184L265.738 79.9551L264.132 85.5009ZM226.632 90.5009C226.955 90.1195 226.955 90.1195 226.955 90.1194C226.955 90.1193 226.955 90.1191 226.955 90.1188C226.954 90.1183 226.953 90.1174 226.952 90.1163C226.949 90.1139 226.945 90.1103 226.939 90.1054C226.928 90.0957 226.91 90.081 226.888 90.0614C226.842 90.0221 226.774 89.9633 226.685 89.8856C226.507 89.7301 226.245 89.4992 225.913 89.1989C225.247 88.5982 224.298 87.7199 223.165 86.6123C220.898 84.3963 217.899 81.2659 214.969 77.6056C212.037 73.9435 209.184 69.7635 207.198 65.4487C205.21 61.1303 204.108 56.7141 204.628 52.5631L204.132 52.5009L203.636 52.4388C203.084 56.844 204.259 61.4559 206.289 65.8668C208.321 70.2813 211.227 74.5318 214.188 78.2306C217.151 81.9313 220.179 85.0922 222.466 87.3274C223.609 88.4454 224.568 89.3327 225.242 89.9411C225.579 90.2454 225.845 90.4799 226.027 90.6388C226.118 90.7182 226.188 90.7787 226.236 90.8196C226.259 90.84 226.277 90.8555 226.29 90.866C226.296 90.8713 226.301 90.8752 226.304 90.878C226.305 90.8793 226.307 90.8804 226.307 90.8811C226.308 90.8815 226.308 90.8818 226.308 90.882C226.309 90.8822 226.309 90.8824 226.632 90.5009ZM204.132 52.5009L204.628 52.5631C206.988 33.7272 223.067 21.6232 242.135 21.5009L242.132 21.0009L242.129 20.5009C222.647 20.6259 206.068 33.0224 203.636 52.4388L204.132 52.5009ZM242.132 21.0009L242.135 21.5009C261.354 21.3776 277.82 33.5735 280.136 52.5615L280.632 52.5009L281.128 52.4404C278.741 32.8613 261.763 20.375 242.129 20.5009L242.132 21.0009ZM280.632 52.5009L280.136 52.5615C280.887 58.7235 278.929 64.7274 276.104 69.8922C273.281 75.0541 269.615 79.3363 267.017 82.0361L267.378 82.3828L267.738 82.7295C270.37 79.9944 274.1 75.6402 276.982 70.3721C279.861 65.107 281.915 58.8874 281.128 52.4404L280.632 52.5009Z" fill="black"/>
<path d="M303.132 52.5009L302.636 52.4388L303.132 52.5009ZM341.132 21.0009L341.135 21.5009L341.132 21.0009ZM379.632 52.5009L379.136 52.5615L379.632 52.5009ZM363.132 85.5009L368.738 84.1184L364.738 79.9551L363.132 85.5009ZM325.632 90.5009C325.955 90.1195 325.955 90.1195 325.955 90.1194C325.955 90.1193 325.955 90.1191 325.955 90.1188C325.954 90.1183 325.953 90.1174 325.952 90.1163C325.949 90.1139 325.945 90.1103 325.939 90.1054C325.928 90.0957 325.91 90.081 325.888 90.0614C325.842 90.0221 325.774 89.9633 325.685 89.8856C325.507 89.7301 325.245 89.4992 324.913 89.1989C324.247 88.5982 323.298 87.7199 322.165 86.6123C319.898 84.3963 316.899 81.2659 313.969 77.6056C311.037 73.9435 308.184 69.7635 306.198 65.4487C304.21 61.1303 303.108 56.7141 303.628 52.5631L303.132 52.5009L302.636 52.4388C302.084 56.844 303.259 61.4559 305.289 65.8668C307.321 70.2813 310.227 74.5318 313.188 78.2306C316.151 81.9313 319.179 85.0922 321.466 87.3274C322.609 88.4454 323.568 89.3327 324.242 89.9411C324.579 90.2454 324.845 90.4799 325.027 90.6388C325.118 90.7182 325.188 90.7787 325.236 90.8196C325.259 90.84 325.277 90.8555 325.29 90.866C325.296 90.8713 325.301 90.8752 325.304 90.878C325.305 90.8793 325.307 90.8804 325.307 90.8811C325.308 90.8815 325.308 90.8818 325.308 90.882C325.309 90.8822 325.309 90.8824 325.632 90.5009ZM303.132 52.5009L303.628 52.5631C305.988 33.7272 322.067 21.6232 341.135 21.5009L341.132 21.0009L341.129 20.5009C321.647 20.6259 305.068 33.0224 302.636 52.4388L303.132 52.5009ZM341.132 21.0009L341.135 21.5009C360.354 21.3776 376.82 33.5735 379.136 52.5615L379.632 52.5009L380.128 52.4404C377.741 32.8613 360.763 20.375 341.129 20.5009L341.132 21.0009ZM379.632 52.5009L379.136 52.5615C379.887 58.7235 377.929 64.7274 375.104 69.8922C372.281 75.0541 368.615 79.3363 366.017 82.0361L366.378 82.3828L366.738 82.7295C369.37 79.9944 373.1 75.6402 375.982 70.3721C378.861 65.107 380.915 58.8874 380.128 52.4404L379.632 52.5009Z" fill="black"/>
<path d="M43.5 12.1193C42.858 12.1193 42.3111 11.9446 41.8594 11.5952C41.4077 11.2429 41.0625 10.733 40.8239 10.0653C40.5852 9.39489 40.4659 8.58523 40.4659 7.63636C40.4659 6.69318 40.5852 5.88778 40.8239 5.22017C41.0653 4.54972 41.4119 4.03835 41.8636 3.68608C42.3182 3.33097 42.8636 3.15341 43.5 3.15341C44.1364 3.15341 44.6804 3.33097 45.1321 3.68608C45.5866 4.03835 45.9332 4.54972 46.1719 5.22017C46.4134 5.88778 46.5341 6.69318 46.5341 7.63636C46.5341 8.58523 46.4148 9.39489 46.1761 10.0653C45.9375 10.733 45.5923 11.2429 45.1406 11.5952C44.6889 11.9446 44.142 12.1193 43.5 12.1193ZM43.5 11.1818C44.1364 11.1818 44.6307 10.875 44.983 10.2614C45.3352 9.64773 45.5114 8.77273 45.5114 7.63636C45.5114 6.88068 45.4304 6.23722 45.2685 5.70597C45.1094 5.17472 44.8793 4.76989 44.5781 4.49148C44.2798 4.21307 43.9205 4.07386 43.5 4.07386C42.8693 4.07386 42.3764 4.38494 42.0213 5.0071C41.6662 5.62642 41.4886 6.50284 41.4886 7.63636C41.4886 8.39205 41.5682 9.03409 41.7273 9.5625C41.8864 10.0909 42.1151 10.4929 42.4134 10.7685C42.7145 11.044 43.0767 11.1818 43.5 11.1818Z" fill="black"/>
<path d="M146.5 12.1193C145.858 12.1193 145.311 11.9446 144.859 11.5952C144.408 11.2429 144.063 10.733 143.824 10.0653C143.585 9.39489 143.466 8.58523 143.466 7.63636C143.466 6.69318 143.585 5.88778 143.824 5.22017C144.065 4.54972 144.412 4.03835 144.864 3.68608C145.318 3.33097 145.864 3.15341 146.5 3.15341C147.136 3.15341 147.68 3.33097 148.132 3.68608C148.587 4.03835 148.933 4.54972 149.172 5.22017C149.413 5.88778 149.534 6.69318 149.534 7.63636C149.534 8.58523 149.415 9.39489 149.176 10.0653C148.938 10.733 148.592 11.2429 148.141 11.5952C147.689 11.9446 147.142 12.1193 146.5 12.1193ZM146.5 11.1818C147.136 11.1818 147.631 10.875 147.983 10.2614C148.335 9.64773 148.511 8.77273 148.511 7.63636C148.511 6.88068 148.43 6.23722 148.268 5.70597C148.109 5.17472 147.879 4.76989 147.578 4.49148C147.28 4.21307 146.92 4.07386 146.5 4.07386C145.869 4.07386 145.376 4.38494 145.021 5.0071C144.666 5.62642 144.489 6.50284 144.489 7.63636C144.489 8.39205 144.568 9.03409 144.727 9.5625C144.886 10.0909 145.115 10.4929 145.413 10.7685C145.714 11.044 146.077 11.1818 146.5 11.1818Z" fill="black"/>
<path d="M241.5 12.1193C240.858 12.1193 240.311 11.9446 239.859 11.5952C239.408 11.2429 239.063 10.733 238.824 10.0653C238.585 9.39489 238.466 8.58523 238.466 7.63636C238.466 6.69318 238.585 5.88778 238.824 5.22017C239.065 4.54972 239.412 4.03835 239.864 3.68608C240.318 3.33097 240.864 3.15341 241.5 3.15341C242.136 3.15341 242.68 3.33097 243.132 3.68608C243.587 4.03835 243.933 4.54972 244.172 5.22017C244.413 5.88778 244.534 6.69318 244.534 7.63636C244.534 8.58523 244.415 9.39489 244.176 10.0653C243.938 10.733 243.592 11.2429 243.141 11.5952C242.689 11.9446 242.142 12.1193 241.5 12.1193ZM241.5 11.1818C242.136 11.1818 242.631 10.875 242.983 10.2614C243.335 9.64773 243.511 8.77273 243.511 7.63636C243.511 6.88068 243.43 6.23722 243.268 5.70597C243.109 5.17472 242.879 4.76989 242.578 4.49148C242.28 4.21307 241.92 4.07386 241.5 4.07386C240.869 4.07386 240.376 4.38494 240.021 5.0071C239.666 5.62642 239.489 6.50284 239.489 7.63636C239.489 8.39205 239.568 9.03409 239.727 9.5625C239.886 10.0909 240.115 10.4929 240.413 10.7685C240.714 11.044 241.077 11.1818 241.5 11.1818Z" fill="black"/>
<path d="M340.203 12.1193C339.561 12.1193 339.014 11.9446 338.562 11.5952C338.111 11.2429 337.766 10.733 337.527 10.0653C337.288 9.39489 337.169 8.58523 337.169 7.63636C337.169 6.69318 337.288 5.88778 337.527 5.22017C337.768 4.54972 338.115 4.03835 338.567 3.68608C339.021 3.33097 339.567 3.15341 340.203 3.15341C340.839 3.15341 341.384 3.33097 341.835 3.68608C342.29 4.03835 342.636 4.54972 342.875 5.22017C343.116 5.88778 343.237 6.69318 343.237 7.63636C343.237 8.58523 343.118 9.39489 342.879 10.0653C342.641 10.733 342.295 11.2429 341.844 11.5952C341.392 11.9446 340.845 12.1193 340.203 12.1193ZM340.203 11.1818C340.839 11.1818 341.334 10.875 341.686 10.2614C342.038 9.64773 342.214 8.77273 342.214 7.63636C342.214 6.88068 342.134 6.23722 341.972 5.70597C341.813 5.17472 341.582 4.76989 341.281 4.49148C340.983 4.21307 340.624 4.07386 340.203 4.07386C339.572 4.07386 339.08 4.38494 338.724 5.0071C338.369 5.62642 338.192 6.50284 338.192 7.63636C338.192 8.39205 338.271 9.03409 338.43 9.5625C338.589 10.0909 338.818 10.4929 339.116 10.7685C339.418 11.044 339.78 11.1818 340.203 11.1818ZM346.069 10.8068L346.001 11.267C345.952 11.5909 345.879 11.9375 345.779 12.3068C345.683 12.6761 345.582 13.0241 345.477 13.3509C345.371 13.6776 345.285 13.9375 345.217 14.1307H344.45C344.487 13.9489 344.535 13.7088 344.594 13.4105C344.654 13.1122 344.714 12.7784 344.773 12.4091C344.836 12.0426 344.887 11.6676 344.927 11.2841L344.978 10.8068H346.069ZM349.94 3.27273V12H348.884V4.38068H348.832L346.702 5.79545V4.72159L348.884 3.27273H349.94Z" fill="black"/>
<path d="M91.6825 94.2727V103H90.6257V95.3807H90.5746L88.4439 96.7955V95.7216L90.6257 94.2727H91.6825Z" fill="black"/>
<path d="M191.683 94.2727V103H190.626V95.3807H190.575L188.444 96.7955V95.7216L190.626 94.2727H191.683Z" fill="black"/>
<path d="M290.683 93.2727V102H289.626V94.3807H289.575L287.444 95.7955V94.7216L289.626 93.2727H290.683Z" fill="black"/>
<path d="M115 109.5L110 106.613V112.387L115 109.5ZM71 109.5V110H110.5V109.5V109H71V109.5Z" fill="black"/>
<path d="M215 109.5L210 106.613V112.387L215 109.5ZM171 109.5V110H210.5V109.5V109H171V109.5Z" fill="black"/>
<path d="M314 108.5L309 105.613V111.387L314 108.5ZM270 108.5V109H309.5V108.5V108H270V108.5Z" fill="black"/>
<path d="M41.4801 116.455V112.994H41.3949C41.321 113.114 41.2159 113.264 41.0795 113.446C40.9432 113.625 40.7486 113.786 40.4957 113.928C40.2429 114.067 39.9063 114.136 39.4858 114.136C38.9403 114.136 38.4588 113.999 38.0412 113.723C37.6236 113.445 37.2969 113.053 37.0611 112.547C36.8253 112.038 36.7074 111.438 36.7074 110.744C36.7074 110.057 36.8253 109.46 37.0611 108.955C37.2969 108.449 37.625 108.058 38.0455 107.783C38.4659 107.507 38.9517 107.369 39.5028 107.369C39.929 107.369 40.2656 107.44 40.5128 107.582C40.7628 107.722 40.9531 107.881 41.0838 108.06C41.2173 108.236 41.321 108.381 41.3949 108.494H41.5142V107.455H42.4858V116.455H41.4801ZM39.6222 113.233C40.0256 113.233 40.3665 113.128 40.6449 112.918C40.9233 112.705 41.1349 112.411 41.2798 112.036C41.4247 111.658 41.4972 111.222 41.4972 110.727C41.4972 110.239 41.4261 109.811 41.2841 109.445C41.142 109.075 40.9318 108.788 40.6534 108.584C40.375 108.376 40.0313 108.273 39.6222 108.273C39.196 108.273 38.8409 108.382 38.5568 108.601C38.2756 108.817 38.0639 109.111 37.9219 109.483C37.7827 109.852 37.7131 110.267 37.7131 110.727C37.7131 111.193 37.7841 111.616 37.9261 111.997C38.071 112.375 38.2841 112.676 38.5653 112.901C38.8494 113.122 39.2017 113.233 39.6222 113.233ZM47.1562 114.119C46.5142 114.119 45.9673 113.945 45.5156 113.595C45.0639 113.243 44.7188 112.733 44.4801 112.065C44.2415 111.395 44.1222 110.585 44.1222 109.636C44.1222 108.693 44.2415 107.888 44.4801 107.22C44.7216 106.55 45.0682 106.038 45.5199 105.686C45.9744 105.331 46.5199 105.153 47.1562 105.153C47.7926 105.153 48.3366 105.331 48.7884 105.686C49.2429 106.038 49.5895 106.55 49.8281 107.22C50.0696 107.888 50.1903 108.693 50.1903 109.636C50.1903 110.585 50.071 111.395 49.8324 112.065C49.5938 112.733 49.2486 113.243 48.7969 113.595C48.3452 113.945 47.7983 114.119 47.1562 114.119ZM47.1562 113.182C47.7926 113.182 48.2869 112.875 48.6392 112.261C48.9915 111.648 49.1676 110.773 49.1676 109.636C49.1676 108.881 49.0866 108.237 48.9247 107.706C48.7656 107.175 48.5355 106.77 48.2344 106.491C47.9361 106.213 47.5767 106.074 47.1562 106.074C46.5256 106.074 46.0327 106.385 45.6776 107.007C45.3224 107.626 45.1449 108.503 45.1449 109.636C45.1449 110.392 45.2244 111.034 45.3835 111.562C45.5426 112.091 45.7713 112.493 46.0696 112.768C46.3707 113.044 46.733 113.182 47.1562 113.182Z" fill="white"/>
<path d="M141.441 117.455V113.994H141.356C141.282 114.114 141.177 114.264 141.04 114.446C140.904 114.625 140.71 114.786 140.457 114.928C140.204 115.067 139.867 115.136 139.447 115.136C138.901 115.136 138.42 114.999 138.002 114.723C137.585 114.445 137.258 114.053 137.022 113.547C136.786 113.038 136.668 112.438 136.668 111.744C136.668 111.057 136.786 110.46 137.022 109.955C137.258 109.449 137.586 109.058 138.006 108.783C138.427 108.507 138.913 108.369 139.464 108.369C139.89 108.369 140.227 108.44 140.474 108.582C140.724 108.722 140.914 108.881 141.045 109.06C141.178 109.236 141.282 109.381 141.356 109.494H141.475V108.455H142.447V117.455H141.441ZM139.583 114.233C139.987 114.233 140.327 114.128 140.606 113.918C140.884 113.705 141.096 113.411 141.241 113.036C141.386 112.658 141.458 112.222 141.458 111.727C141.458 111.239 141.387 110.811 141.245 110.445C141.103 110.075 140.893 109.788 140.614 109.584C140.336 109.376 139.992 109.273 139.583 109.273C139.157 109.273 138.802 109.382 138.518 109.601C138.237 109.817 138.025 110.111 137.883 110.483C137.744 110.852 137.674 111.267 137.674 111.727C137.674 112.193 137.745 112.616 137.887 112.997C138.032 113.375 138.245 113.676 138.526 113.901C138.81 114.122 139.163 114.233 139.583 114.233ZM147.339 106.273V115H146.282V107.381H146.231L144.1 108.795V107.722L146.282 106.273H147.339Z" fill="white"/>
<path d="M239.597 117.455V113.994H239.512C239.438 114.114 239.333 114.264 239.197 114.446C239.06 114.625 238.866 114.786 238.613 114.928C238.36 115.067 238.023 115.136 237.603 115.136C237.058 115.136 236.576 114.999 236.158 114.723C235.741 114.445 235.414 114.053 235.178 113.547C234.942 113.038 234.825 112.438 234.825 111.744C234.825 111.057 234.942 110.46 235.178 109.955C235.414 109.449 235.742 109.058 236.163 108.783C236.583 108.507 237.069 108.369 237.62 108.369C238.046 108.369 238.383 108.44 238.63 108.582C238.88 108.722 239.07 108.881 239.201 109.06C239.335 109.236 239.438 109.381 239.512 109.494H239.631V108.455H240.603V117.455H239.597ZM237.739 114.233C238.143 114.233 238.484 114.128 238.762 113.918C239.04 113.705 239.252 113.411 239.397 113.036C239.542 112.658 239.614 112.222 239.614 111.727C239.614 111.239 239.543 110.811 239.401 110.445C239.259 110.075 239.049 109.788 238.771 109.584C238.492 109.376 238.148 109.273 237.739 109.273C237.313 109.273 236.958 109.382 236.674 109.601C236.393 109.817 236.181 110.111 236.039 110.483C235.9 110.852 235.83 111.267 235.83 111.727C235.83 112.193 235.901 112.616 236.043 112.997C236.188 113.375 236.401 113.676 236.683 113.901C236.967 114.122 237.319 114.233 237.739 114.233ZM242.427 115V114.233L245.308 111.08C245.646 110.71 245.924 110.389 246.143 110.116C246.362 109.841 246.523 109.582 246.629 109.341C246.737 109.097 246.79 108.841 246.79 108.574C246.79 108.267 246.717 108.001 246.569 107.777C246.424 107.553 246.225 107.379 245.972 107.257C245.719 107.135 245.435 107.074 245.12 107.074C244.785 107.074 244.492 107.143 244.242 107.283C243.995 107.419 243.803 107.611 243.667 107.858C243.533 108.105 243.467 108.395 243.467 108.727H242.461C242.461 108.216 242.579 107.767 242.815 107.381C243.05 106.994 243.371 106.693 243.778 106.477C244.187 106.261 244.646 106.153 245.154 106.153C245.665 106.153 246.119 106.261 246.513 106.477C246.908 106.693 247.218 106.984 247.442 107.351C247.667 107.717 247.779 108.125 247.779 108.574C247.779 108.895 247.721 109.209 247.604 109.516C247.491 109.82 247.292 110.159 247.008 110.534C246.727 110.906 246.336 111.361 245.836 111.898L243.876 113.994V114.062H247.933V115H242.427Z" fill="white"/>
<path d="M344.41 117.455V113.994H344.325C344.251 114.114 344.146 114.264 344.009 114.446C343.873 114.625 343.678 114.786 343.425 114.928C343.173 115.067 342.836 115.136 342.415 115.136C341.87 115.136 341.388 114.999 340.971 114.723C340.553 114.445 340.227 114.053 339.991 113.547C339.755 113.038 339.637 112.438 339.637 111.744C339.637 111.057 339.755 110.46 339.991 109.955C340.227 109.449 340.555 109.058 340.975 108.783C341.396 108.507 341.881 108.369 342.433 108.369C342.859 108.369 343.195 108.44 343.442 108.582C343.692 108.722 343.883 108.881 344.013 109.06C344.147 109.236 344.251 109.381 344.325 109.494H344.444V108.455H345.415V117.455H344.41ZM342.552 114.233C342.955 114.233 343.296 114.128 343.575 113.918C343.853 113.705 344.065 113.411 344.21 113.036C344.354 112.658 344.427 112.222 344.427 111.727C344.427 111.239 344.356 110.811 344.214 110.445C344.072 110.075 343.862 109.788 343.583 109.584C343.305 109.376 342.961 109.273 342.552 109.273C342.126 109.273 341.771 109.382 341.487 109.601C341.205 109.817 340.994 110.111 340.852 110.483C340.712 110.852 340.643 111.267 340.643 111.727C340.643 112.193 340.714 112.616 340.856 112.997C341.001 113.375 341.214 113.676 341.495 113.901C341.779 114.122 342.131 114.233 342.552 114.233ZM350.188 115.119C349.626 115.119 349.124 115.023 348.684 114.83C348.246 114.636 347.898 114.368 347.64 114.024C347.384 113.678 347.245 113.276 347.222 112.818H348.296C348.319 113.099 348.415 113.342 348.586 113.547C348.756 113.749 348.979 113.905 349.255 114.016C349.531 114.126 349.836 114.182 350.171 114.182C350.546 114.182 350.879 114.116 351.168 113.986C351.458 113.855 351.685 113.673 351.85 113.44C352.015 113.207 352.097 112.938 352.097 112.631C352.097 112.31 352.018 112.027 351.859 111.783C351.7 111.536 351.467 111.342 351.16 111.203C350.853 111.064 350.478 110.994 350.035 110.994H349.336V110.057H350.035C350.381 110.057 350.685 109.994 350.947 109.869C351.211 109.744 351.417 109.568 351.565 109.341C351.715 109.114 351.79 108.847 351.79 108.54C351.79 108.244 351.725 107.987 351.594 107.768C351.464 107.55 351.279 107.379 351.04 107.257C350.805 107.135 350.526 107.074 350.205 107.074C349.904 107.074 349.62 107.129 349.353 107.24C349.089 107.348 348.873 107.506 348.705 107.713C348.538 107.918 348.447 108.165 348.433 108.455H347.41C347.427 107.997 347.565 107.597 347.823 107.253C348.082 106.906 348.42 106.636 348.837 106.443C349.258 106.25 349.719 106.153 350.222 106.153C350.762 106.153 351.225 106.263 351.612 106.482C351.998 106.697 352.295 106.983 352.502 107.338C352.71 107.693 352.813 108.077 352.813 108.489C352.813 108.98 352.684 109.399 352.425 109.746C352.17 110.092 351.822 110.332 351.381 110.466V110.534C351.933 110.625 352.363 110.859 352.673 111.237C352.982 111.612 353.137 112.077 353.137 112.631C353.137 113.105 353.008 113.531 352.749 113.909C352.494 114.284 352.144 114.58 351.701 114.795C351.258 115.011 350.754 115.119 350.188 115.119Z" fill="white"/>
<path d="M373 109C373 123.912 360.912 136 346 136C331.088 136 319 123.912 319 109C319 94.0883 331.088 82 346 82C360.912 82 373 94.0883 373 109ZM320.7 109C320.7 122.973 332.027 134.3 346 134.3C359.973 134.3 371.3 122.973 371.3 109C371.3 95.0274 359.973 83.7004 346 83.7004C332.027 83.7004 320.7 95.0274 320.7 109Z" fill="black"/>
</svg>
