<svg width="291" height="249" viewBox="0 0 291 249" fill="none" xmlns="http://www.w3.org/2000/svg">
<circle cx="25" cy="139" r="25" fill="black"/>
<circle cx="146" cy="90" r="24" fill="black"/>
<path d="M145.441 98.4545V94.9943H145.356C145.282 95.1136 145.177 95.2642 145.04 95.446C144.904 95.625 144.71 95.7855 144.457 95.9276C144.204 96.0668 143.867 96.1364 143.447 96.1364C142.901 96.1364 142.42 95.9986 142.002 95.723C141.585 95.4446 141.258 95.0526 141.022 94.5469C140.786 94.0384 140.668 93.4375 140.668 92.7443C140.668 92.0568 140.786 91.4602 141.022 90.9545C141.258 90.4489 141.586 90.0582 142.006 89.7827C142.427 89.5071 142.913 89.3693 143.464 89.3693C143.89 89.3693 144.227 89.4403 144.474 89.5824C144.724 89.7216 144.914 89.8807 145.045 90.0597C145.178 90.2358 145.282 90.3807 145.356 90.4943H145.475V89.4545H146.447V98.4545H145.441ZM143.583 95.233C143.987 95.233 144.327 95.1278 144.606 94.9176C144.884 94.7045 145.096 94.4105 145.241 94.0355C145.386 93.6577 145.458 93.2216 145.458 92.7273C145.458 92.2386 145.387 91.8111 145.245 91.4446C145.103 91.0753 144.893 90.7884 144.614 90.5838C144.336 90.3764 143.992 90.2727 143.583 90.2727C143.157 90.2727 142.802 90.3821 142.518 90.6009C142.237 90.8168 142.025 91.1108 141.883 91.483C141.744 91.8523 141.674 92.267 141.674 92.7273C141.674 93.1932 141.745 93.6165 141.887 93.9972C142.032 94.375 142.245 94.6761 142.526 94.9006C142.81 95.1222 143.163 95.233 143.583 95.233ZM151.339 87.2727V96H150.282V88.3807H150.231L148.1 89.7955V88.7216L150.282 87.2727H151.339Z" fill="white"/>
<path d="M173 90C173 104.912 160.912 117 146 117C131.088 117 119 104.912 119 90C119 75.0883 131.088 63 146 63C160.912 63 173 75.0883 173 90ZM120.7 90C120.7 103.973 132.027 115.3 146 115.3C159.973 115.3 171.3 103.973 171.3 90C171.3 76.0274 159.973 64.7004 146 64.7004C132.027 64.7004 120.7 76.0274 120.7 90Z" fill="black"/>
<circle cx="145" cy="215" r="24" fill="black"/>
<path d="M143.41 223.455V219.994H143.325C143.251 220.114 143.146 220.264 143.009 220.446C142.873 220.625 142.678 220.786 142.425 220.928C142.173 221.067 141.836 221.136 141.415 221.136C140.87 221.136 140.388 220.999 139.971 220.723C139.553 220.445 139.227 220.053 138.991 219.547C138.755 219.038 138.637 218.438 138.637 217.744C138.637 217.057 138.755 216.46 138.991 215.955C139.227 215.449 139.555 215.058 139.975 214.783C140.396 214.507 140.881 214.369 141.433 214.369C141.859 214.369 142.195 214.44 142.442 214.582C142.692 214.722 142.883 214.881 143.013 215.06C143.147 215.236 143.251 215.381 143.325 215.494H143.444V214.455H144.415V223.455H143.41ZM141.552 220.233C141.955 220.233 142.296 220.128 142.575 219.918C142.853 219.705 143.065 219.411 143.21 219.036C143.354 218.658 143.427 218.222 143.427 217.727C143.427 217.239 143.356 216.811 143.214 216.445C143.072 216.075 142.862 215.788 142.583 215.584C142.305 215.376 141.961 215.273 141.552 215.273C141.126 215.273 140.771 215.382 140.487 215.601C140.205 215.817 139.994 216.111 139.852 216.483C139.712 216.852 139.643 217.267 139.643 217.727C139.643 218.193 139.714 218.616 139.856 218.997C140.001 219.375 140.214 219.676 140.495 219.901C140.779 220.122 141.131 220.233 141.552 220.233ZM149.188 221.119C148.626 221.119 148.124 221.023 147.684 220.83C147.246 220.636 146.898 220.368 146.64 220.024C146.384 219.678 146.245 219.276 146.222 218.818H147.296C147.319 219.099 147.415 219.342 147.586 219.547C147.756 219.749 147.979 219.905 148.255 220.016C148.531 220.126 148.836 220.182 149.171 220.182C149.546 220.182 149.879 220.116 150.168 219.986C150.458 219.855 150.685 219.673 150.85 219.44C151.015 219.207 151.097 218.938 151.097 218.631C151.097 218.31 151.018 218.027 150.859 217.783C150.7 217.536 150.467 217.342 150.16 217.203C149.853 217.064 149.478 216.994 149.035 216.994H148.336V216.057H149.035C149.381 216.057 149.685 215.994 149.947 215.869C150.211 215.744 150.417 215.568 150.565 215.341C150.715 215.114 150.79 214.847 150.79 214.54C150.79 214.244 150.725 213.987 150.594 213.768C150.464 213.55 150.279 213.379 150.04 213.257C149.805 213.135 149.526 213.074 149.205 213.074C148.904 213.074 148.62 213.129 148.353 213.24C148.089 213.348 147.873 213.506 147.705 213.713C147.538 213.918 147.447 214.165 147.433 214.455H146.41C146.427 213.997 146.565 213.597 146.823 213.253C147.082 212.906 147.42 212.636 147.837 212.443C148.258 212.25 148.719 212.153 149.222 212.153C149.762 212.153 150.225 212.263 150.612 212.482C150.998 212.697 151.295 212.983 151.502 213.338C151.71 213.693 151.813 214.077 151.813 214.489C151.813 214.98 151.684 215.399 151.425 215.746C151.17 216.092 150.822 216.332 150.381 216.466V216.534C150.933 216.625 151.363 216.859 151.673 217.237C151.982 217.612 152.137 218.077 152.137 218.631C152.137 219.105 152.008 219.531 151.749 219.909C151.494 220.284 151.144 220.58 150.701 220.795C150.258 221.011 149.754 221.119 149.188 221.119Z" fill="white"/>
<path d="M172 215C172 229.912 159.912 242 145 242C130.088 242 118 229.912 118 215C118 200.088 130.088 188 145 188C159.912 188 172 200.088 172 215ZM119.7 215C119.7 228.973 131.027 240.3 145 240.3C158.973 240.3 170.3 228.973 170.3 215C170.3 201.027 158.973 189.7 145 189.7C131.027 189.7 119.7 201.027 119.7 215Z" fill="black"/>
<path d="M83.5 103.119C82.858 103.119 82.3111 102.945 81.8594 102.595C81.4077 102.243 81.0625 101.733 80.8239 101.065C80.5852 100.395 80.4659 99.5852 80.4659 98.6364C80.4659 97.6932 80.5852 96.8878 80.8239 96.2202C81.0653 95.5497 81.4119 95.0384 81.8636 94.6861C82.3182 94.331 82.8636 94.1534 83.5 94.1534C84.1364 94.1534 84.6804 94.331 85.1321 94.6861C85.5866 95.0384 85.9332 95.5497 86.1719 96.2202C86.4134 96.8878 86.5341 97.6932 86.5341 98.6364C86.5341 99.5852 86.4148 100.395 86.1761 101.065C85.9375 101.733 85.5923 102.243 85.1406 102.595C84.6889 102.945 84.142 103.119 83.5 103.119ZM83.5 102.182C84.1364 102.182 84.6307 101.875 84.983 101.261C85.3352 100.648 85.5114 99.7727 85.5114 98.6364C85.5114 97.8807 85.4304 97.2372 85.2685 96.706C85.1094 96.1747 84.8793 95.7699 84.5781 95.4915C84.2798 95.2131 83.9205 95.0739 83.5 95.0739C82.8693 95.0739 82.3764 95.3849 82.0213 96.0071C81.6662 96.6264 81.4886 97.5028 81.4886 98.6364C81.4886 99.392 81.5682 100.034 81.7273 100.562C81.8864 101.091 82.1151 101.493 82.4134 101.768C82.7145 102.044 83.0767 102.182 83.5 102.182Z" fill="black"/>
<path d="M203.683 54.2727V63H202.626V55.3807H202.575L200.444 56.7955V55.7216L202.626 54.2727H203.683Z" fill="black"/>
<path d="M204.683 237.273V246H203.626V238.381H203.575L201.444 239.795V238.722L203.626 237.273H204.683Z" fill="black"/>
<path d="M260.683 3.27273V12H259.626V4.38068H259.575L257.444 5.79545V4.72159L259.626 3.27273H260.683Z" fill="black"/>
<path d="M142.5 12.1193C141.858 12.1193 141.311 11.9446 140.859 11.5952C140.408 11.2429 140.063 10.733 139.824 10.0653C139.585 9.39489 139.466 8.58523 139.466 7.63636C139.466 6.69318 139.585 5.88778 139.824 5.22017C140.065 4.54972 140.412 4.03835 140.864 3.68608C141.318 3.33097 141.864 3.15341 142.5 3.15341C143.136 3.15341 143.68 3.33097 144.132 3.68608C144.587 4.03835 144.933 4.54972 145.172 5.22017C145.413 5.88778 145.534 6.69318 145.534 7.63636C145.534 8.58523 145.415 9.39489 145.176 10.0653C144.938 10.733 144.592 11.2429 144.141 11.5952C143.689 11.9446 143.142 12.1193 142.5 12.1193ZM142.5 11.1818C143.136 11.1818 143.631 10.875 143.983 10.2614C144.335 9.64773 144.511 8.77273 144.511 7.63636C144.511 6.88068 144.43 6.23722 144.268 5.70597C144.109 5.17472 143.879 4.76989 143.578 4.49148C143.28 4.21307 142.92 4.07386 142.5 4.07386C141.869 4.07386 141.376 4.38494 141.021 5.0071C140.666 5.62642 140.489 6.50284 140.489 7.63636C140.489 8.39205 140.568 9.03409 140.727 9.5625C140.886 10.0909 141.115 10.4929 141.413 10.7685C141.714 11.044 142.077 11.1818 142.5 11.1818Z" fill="black"/>
<path d="M202.5 119.119C201.858 119.119 201.311 118.945 200.859 118.595C200.408 118.243 200.063 117.733 199.824 117.065C199.585 116.395 199.466 115.585 199.466 114.636C199.466 113.693 199.585 112.888 199.824 112.22C200.065 111.55 200.412 111.038 200.864 110.686C201.318 110.331 201.864 110.153 202.5 110.153C203.136 110.153 203.68 110.331 204.132 110.686C204.587 111.038 204.933 111.55 205.172 112.22C205.413 112.888 205.534 113.693 205.534 114.636C205.534 115.585 205.415 116.395 205.176 117.065C204.938 117.733 204.592 118.243 204.141 118.595C203.689 118.945 203.142 119.119 202.5 119.119ZM202.5 118.182C203.136 118.182 203.631 117.875 203.983 117.261C204.335 116.648 204.511 115.773 204.511 114.636C204.511 113.881 204.43 113.237 204.268 112.706C204.109 112.175 203.879 111.77 203.578 111.491C203.28 111.213 202.92 111.074 202.5 111.074C201.869 111.074 201.376 111.385 201.021 112.007C200.666 112.626 200.489 113.503 200.489 114.636C200.489 115.392 200.568 116.034 200.727 116.562C200.886 117.091 201.115 117.493 201.413 117.768C201.714 118.044 202.077 118.182 202.5 118.182Z" fill="black"/>
<path d="M202.5 195.119C201.858 195.119 201.311 194.945 200.859 194.595C200.408 194.243 200.063 193.733 199.824 193.065C199.585 192.395 199.466 191.585 199.466 190.636C199.466 189.693 199.585 188.888 199.824 188.22C200.065 187.55 200.412 187.038 200.864 186.686C201.318 186.331 201.864 186.153 202.5 186.153C203.136 186.153 203.68 186.331 204.132 186.686C204.587 187.038 204.933 187.55 205.172 188.22C205.413 188.888 205.534 189.693 205.534 190.636C205.534 191.585 205.415 192.395 205.176 193.065C204.938 193.733 204.592 194.243 204.141 194.595C203.689 194.945 203.142 195.119 202.5 195.119ZM202.5 194.182C203.136 194.182 203.631 193.875 203.983 193.261C204.335 192.648 204.511 191.773 204.511 190.636C204.511 189.881 204.43 189.237 204.268 188.706C204.109 188.175 203.879 187.77 203.578 187.491C203.28 187.213 202.92 187.074 202.5 187.074C201.869 187.074 201.376 187.385 201.021 188.007C200.666 188.626 200.489 189.503 200.489 190.636C200.489 191.392 200.568 192.034 200.727 192.562C200.886 193.091 201.115 193.493 201.413 193.768C201.714 194.044 202.077 194.182 202.5 194.182Z" fill="black"/>
<path d="M259.5 142.119C258.858 142.119 258.311 141.945 257.859 141.595C257.408 141.243 257.063 140.733 256.824 140.065C256.585 139.395 256.466 138.585 256.466 137.636C256.466 136.693 256.585 135.888 256.824 135.22C257.065 134.55 257.412 134.038 257.864 133.686C258.318 133.331 258.864 133.153 259.5 133.153C260.136 133.153 260.68 133.331 261.132 133.686C261.587 134.038 261.933 134.55 262.172 135.22C262.413 135.888 262.534 136.693 262.534 137.636C262.534 138.585 262.415 139.395 262.176 140.065C261.938 140.733 261.592 141.243 261.141 141.595C260.689 141.945 260.142 142.119 259.5 142.119ZM259.5 141.182C260.136 141.182 260.631 140.875 260.983 140.261C261.335 139.648 261.511 138.773 261.511 137.636C261.511 136.881 261.43 136.237 261.268 135.706C261.109 135.175 260.879 134.77 260.578 134.491C260.28 134.213 259.92 134.074 259.5 134.074C258.869 134.074 258.376 134.385 258.021 135.007C257.666 135.626 257.489 136.503 257.489 137.636C257.489 138.392 257.568 139.034 257.727 139.562C257.886 140.091 258.115 140.493 258.413 140.768C258.714 141.044 259.077 141.182 259.5 141.182Z" fill="black"/>
<path d="M81.6825 164.273V173H80.6257V165.381H80.5746L78.4439 166.795V165.722L80.6257 164.273H81.6825Z" fill="black"/>
<path d="M144.683 133.273V142H143.626V134.381H143.575L141.444 135.795V134.722L143.626 133.273H144.683Z" fill="black"/>
<path d="M112 101L106.254 100.441L108.643 105.697L112 101ZM57 126L57.2069 126.455L108.11 103.317L107.903 102.862L107.696 102.407L56.7931 125.545L57 126Z" fill="black"/>
<path d="M235.705 84L233.141 78.8271L229.943 83.6342L235.705 84ZM202.5 74.5L202.471 74.0008L202.5 74.5ZM175.29 84L175.578 84.4085C180.152 81.1808 184.103 78.9932 188.294 77.5299C192.486 76.0666 196.94 75.3195 202.529 74.9992L202.5 74.5L202.471 74.0008C196.823 74.3245 192.271 75.0825 187.965 76.5858C183.659 78.0891 179.624 80.3294 175.002 83.5915L175.29 84ZM202.5 74.5L202.529 74.9992C214.345 74.3219 222.437 76.1746 231.695 81.9328L231.959 81.5082L232.223 81.0836C222.769 75.2036 214.468 73.3133 202.471 74.0008L202.5 74.5Z" fill="black"/>
<path d="M233.705 209.634L231.141 204.461L227.943 209.268L233.705 209.634ZM200.5 200.134L200.471 199.634L200.5 200.134ZM173.29 209.634L173.578 210.042C178.152 206.814 182.103 204.627 186.294 203.163C190.486 201.7 194.94 200.953 200.529 200.633L200.5 200.134L200.471 199.634C194.823 199.958 190.271 200.716 185.965 202.219C181.659 203.723 177.624 205.963 173.002 209.225L173.29 209.634ZM200.5 200.134L200.529 200.633C212.345 199.956 220.437 201.808 229.695 207.566L229.959 207.142L230.223 206.717C220.769 200.837 212.468 198.947 200.471 199.634L200.5 200.134Z" fill="black"/>
<path d="M175 95L177.564 100.173L180.762 95.3658L175 95ZM208.205 104.5L208.234 104.999L208.205 104.5ZM235.415 95L235.127 94.5915C230.553 97.8192 226.602 100.007 222.411 101.47C218.22 102.933 213.765 103.681 208.177 104.001L208.205 104.5L208.234 104.999C213.882 104.675 218.435 103.918 222.74 102.414C227.046 100.911 231.081 98.6706 235.704 95.4085L235.415 95ZM208.205 104.5L208.177 104.001C196.36 104.678 188.269 102.825 179.01 97.0672L178.746 97.4918L178.482 97.9164C187.936 103.796 196.237 105.687 208.234 104.999L208.205 104.5Z" fill="black"/>
<path d="M173 220.634L175.564 225.806L178.762 220.999L173 220.634ZM206.205 230.134L206.234 230.633L206.205 230.134ZM233.415 220.634L233.127 220.225C228.553 223.453 224.602 225.64 220.411 227.104C216.22 228.567 211.765 229.314 206.177 229.634L206.205 230.134L206.234 230.633C211.882 230.309 216.435 229.551 220.74 228.048C225.046 226.545 229.081 224.304 233.704 221.042L233.415 220.634ZM206.205 230.134L206.177 229.634C194.36 230.312 186.269 228.459 177.01 222.701L176.746 223.125L176.482 223.55C185.936 229.43 194.237 231.32 206.234 230.633L206.205 230.134Z" fill="black"/>
<path d="M114 208L111.91 202.618L108.294 207.119L114 208ZM53 159L52.6869 159.39L110.179 205.572L110.492 205.182L110.805 204.792L53.3131 158.61L53 159Z" fill="black"/>
<path d="M22.4801 144.455V140.994H22.3949C22.321 141.114 22.2159 141.264 22.0795 141.446C21.9432 141.625 21.7486 141.786 21.4957 141.928C21.2429 142.067 20.9063 142.136 20.4858 142.136C19.9403 142.136 19.4588 141.999 19.0412 141.723C18.6236 141.445 18.2969 141.053 18.0611 140.547C17.8253 140.038 17.7074 139.438 17.7074 138.744C17.7074 138.057 17.8253 137.46 18.0611 136.955C18.2969 136.449 18.625 136.058 19.0455 135.783C19.4659 135.507 19.9517 135.369 20.5028 135.369C20.929 135.369 21.2656 135.44 21.5128 135.582C21.7628 135.722 21.9531 135.881 22.0838 136.06C22.2173 136.236 22.321 136.381 22.3949 136.494H22.5142V135.455H23.4858V144.455H22.4801ZM20.6222 141.233C21.0256 141.233 21.3665 141.128 21.6449 140.918C21.9233 140.705 22.1349 140.411 22.2798 140.036C22.4247 139.658 22.4972 139.222 22.4972 138.727C22.4972 138.239 22.4261 137.811 22.2841 137.445C22.142 137.075 21.9318 136.788 21.6534 136.584C21.375 136.376 21.0313 136.273 20.6222 136.273C20.196 136.273 19.8409 136.382 19.5568 136.601C19.2756 136.817 19.0639 137.111 18.9219 137.483C18.7827 137.852 18.7131 138.267 18.7131 138.727C18.7131 139.193 18.7841 139.616 18.9261 139.997C19.071 140.375 19.2841 140.676 19.5653 140.901C19.8494 141.122 20.2017 141.233 20.6222 141.233ZM28.1562 142.119C27.5142 142.119 26.9673 141.945 26.5156 141.595C26.0639 141.243 25.7188 140.733 25.4801 140.065C25.2415 139.395 25.1222 138.585 25.1222 137.636C25.1222 136.693 25.2415 135.888 25.4801 135.22C25.7216 134.55 26.0682 134.038 26.5199 133.686C26.9744 133.331 27.5199 133.153 28.1562 133.153C28.7926 133.153 29.3366 133.331 29.7884 133.686C30.2429 134.038 30.5895 134.55 30.8281 135.22C31.0696 135.888 31.1903 136.693 31.1903 137.636C31.1903 138.585 31.071 139.395 30.8324 140.065C30.5938 140.733 30.2486 141.243 29.7969 141.595C29.3452 141.945 28.7983 142.119 28.1562 142.119ZM28.1562 141.182C28.7926 141.182 29.2869 140.875 29.6392 140.261C29.9915 139.648 30.1676 138.773 30.1676 137.636C30.1676 136.881 30.0866 136.237 29.9247 135.706C29.7656 135.175 29.5355 134.77 29.2344 134.491C28.9361 134.213 28.5767 134.074 28.1562 134.074C27.5256 134.074 27.0327 134.385 26.6776 135.007C26.3224 135.626 26.1449 136.503 26.1449 137.636C26.1449 138.392 26.2244 139.034 26.3835 139.562C26.5426 140.091 26.7713 140.493 27.0696 140.768C27.3707 141.044 27.733 141.182 28.1562 141.182Z" fill="white"/>
<circle cx="262" cy="90" r="25" fill="black"/>
<circle cx="261" cy="215" r="25" fill="black"/>
<path d="M258.597 95.4545V91.9943H258.512C258.438 92.1136 258.333 92.2642 258.197 92.446C258.06 92.625 257.866 92.7855 257.613 92.9276C257.36 93.0668 257.023 93.1364 256.603 93.1364C256.058 93.1364 255.576 92.9986 255.158 92.723C254.741 92.4446 254.414 92.0526 254.178 91.5469C253.942 91.0384 253.825 90.4375 253.825 89.7443C253.825 89.0568 253.942 88.4602 254.178 87.9545C254.414 87.4489 254.742 87.0582 255.163 86.7827C255.583 86.5071 256.069 86.3693 256.62 86.3693C257.046 86.3693 257.383 86.4403 257.63 86.5824C257.88 86.7216 258.07 86.8807 258.201 87.0597C258.335 87.2358 258.438 87.3807 258.512 87.4943H258.631V86.4545H259.603V95.4545H258.597ZM256.739 92.233C257.143 92.233 257.484 92.1278 257.762 91.9176C258.04 91.7045 258.252 91.4105 258.397 91.0355C258.542 90.6577 258.614 90.2216 258.614 89.7273C258.614 89.2386 258.543 88.8111 258.401 88.4446C258.259 88.0753 258.049 87.7884 257.771 87.5838C257.492 87.3764 257.148 87.2727 256.739 87.2727C256.313 87.2727 255.958 87.3821 255.674 87.6009C255.393 87.8168 255.181 88.1108 255.039 88.483C254.9 88.8523 254.83 89.267 254.83 89.7273C254.83 90.1932 254.901 90.6165 255.043 90.9972C255.188 91.375 255.401 91.6761 255.683 91.9006C255.967 92.1222 256.319 92.233 256.739 92.233ZM261.427 93V92.233L264.308 89.0795C264.646 88.7102 264.924 88.3892 265.143 88.1165C265.362 87.8409 265.523 87.5824 265.629 87.3409C265.737 87.0966 265.79 86.8409 265.79 86.5739C265.79 86.267 265.717 86.0014 265.569 85.777C265.424 85.5526 265.225 85.3793 264.972 85.2571C264.719 85.1349 264.435 85.0739 264.12 85.0739C263.785 85.0739 263.492 85.1435 263.242 85.2827C262.995 85.419 262.803 85.6108 262.667 85.858C262.533 86.1051 262.467 86.3949 262.467 86.7273H261.461C261.461 86.2159 261.579 85.767 261.815 85.3807C262.05 84.9943 262.371 84.6932 262.778 84.4773C263.187 84.2614 263.646 84.1534 264.154 84.1534C264.665 84.1534 265.119 84.2614 265.513 84.4773C265.908 84.6932 266.218 84.9844 266.442 85.3509C266.667 85.7173 266.779 86.125 266.779 86.5739C266.779 86.8949 266.721 87.2088 266.604 87.5156C266.491 87.8196 266.292 88.1591 266.008 88.5341C265.727 88.9062 265.336 89.3608 264.836 89.8977L262.876 91.9943V92.0625H266.933V93H261.427Z" fill="white"/>
<path d="M258.381 220.455V216.994H258.295C258.221 217.114 258.116 217.264 257.98 217.446C257.844 217.625 257.649 217.786 257.396 217.928C257.143 218.067 256.807 218.136 256.386 218.136C255.841 218.136 255.359 217.999 254.942 217.723C254.524 217.445 254.197 217.053 253.961 216.547C253.726 216.038 253.608 215.438 253.608 214.744C253.608 214.057 253.726 213.46 253.961 212.955C254.197 212.449 254.525 212.058 254.946 211.783C255.366 211.507 255.852 211.369 256.403 211.369C256.829 211.369 257.166 211.44 257.413 211.582C257.663 211.722 257.854 211.881 257.984 212.06C258.118 212.236 258.221 212.381 258.295 212.494H258.415V211.455H259.386V220.455H258.381ZM256.523 217.233C256.926 217.233 257.267 217.128 257.545 216.918C257.824 216.705 258.035 216.411 258.18 216.036C258.325 215.658 258.398 215.222 258.398 214.727C258.398 214.239 258.327 213.811 258.184 213.445C258.042 213.075 257.832 212.788 257.554 212.584C257.275 212.376 256.932 212.273 256.523 212.273C256.096 212.273 255.741 212.382 255.457 212.601C255.176 212.817 254.964 213.111 254.822 213.483C254.683 213.852 254.613 214.267 254.613 214.727C254.613 215.193 254.684 215.616 254.827 215.997C254.971 216.375 255.184 216.676 255.466 216.901C255.75 217.122 256.102 217.233 256.523 217.233ZM261.006 216.21V215.341L264.841 209.273H265.471V210.619H265.045L262.148 215.205V215.273H267.312V216.21H261.006ZM265.113 218V215.946V215.541V209.273H266.119V218H265.113Z" fill="white"/>
<path d="M118.086 40.8493L117.59 40.7881L118.086 40.8493ZM142.826 20.0006L142.83 20.5006L142.826 20.0006ZM167.892 40.8493L167.396 40.9088L167.892 40.8493ZM157.15 62.6907L162.715 61.1525L158.6 57.1023L157.15 62.6907ZM132.735 66C133.061 65.6212 133.061 65.6212 133.061 65.6212C133.061 65.6211 133.061 65.621 133.061 65.6209C133.061 65.6205 133.06 65.62 133.059 65.6193C133.057 65.6178 133.055 65.6155 133.051 65.6123C133.044 65.606 133.033 65.5964 133.018 65.5836C132.989 65.5579 132.945 65.5192 132.887 65.4681C132.772 65.3658 132.602 65.2136 132.386 65.0155C131.955 64.6192 131.338 64.0395 130.602 63.3083C129.13 61.8449 127.182 59.7782 125.28 57.3626C123.376 54.945 121.527 52.1903 120.242 49.351C118.955 46.5082 118.249 43.6169 118.582 40.9104L118.086 40.8493L117.59 40.7881C117.225 43.7446 118.002 46.8287 119.331 49.7635C120.661 52.7018 122.561 55.5268 124.494 57.9813C126.429 60.4375 128.405 62.5348 129.897 64.0176C130.644 64.7593 131.27 65.3482 131.71 65.7522C131.93 65.9543 132.104 66.1102 132.223 66.2159C132.283 66.2688 132.329 66.3091 132.36 66.3364C132.376 66.3501 132.387 66.3605 132.396 66.3676C132.4 66.3711 132.403 66.3738 132.405 66.3757C132.406 66.3766 132.407 66.3773 132.408 66.3779C132.408 66.3781 132.408 66.3784 132.408 66.3785C132.408 66.3787 132.409 66.3788 132.735 66ZM118.086 40.8493L118.582 40.9104C120.107 28.5365 130.494 20.5811 142.83 20.5006L142.826 20.0006L142.823 19.5006C130.06 19.5839 119.185 27.8443 117.59 40.7881L118.086 40.8493ZM142.826 20.0006L142.83 20.5006C155.263 20.4195 165.9 28.4359 167.396 40.9088L167.892 40.8493L168.389 40.7897C166.823 27.7366 155.685 19.4168 142.823 19.5006L142.826 20.0006ZM167.892 40.8493L167.396 40.9088C167.833 44.5558 166.845 48.1264 165.297 51.2946C163.749 54.4614 161.656 57.1955 159.931 59.1533L160.307 59.4838L160.682 59.8143C162.441 57.8171 164.595 55.0082 166.195 51.7337C167.795 48.4604 168.857 44.6913 168.389 40.7897L167.892 40.8493Z" fill="black"/>
<path d="M234.086 40.8493L233.59 40.7881L234.086 40.8493ZM258.826 20.0006L258.83 20.5006L258.826 20.0006ZM283.892 40.8493L283.396 40.9088L283.892 40.8493ZM273.15 62.6907L278.715 61.1525L274.6 57.1023L273.15 62.6907ZM248.735 66C249.061 65.6212 249.061 65.6212 249.061 65.6212C249.061 65.6211 249.061 65.621 249.061 65.6209C249.061 65.6205 249.06 65.62 249.059 65.6193C249.057 65.6178 249.055 65.6155 249.051 65.6123C249.044 65.606 249.033 65.5964 249.018 65.5836C248.989 65.5579 248.945 65.5192 248.887 65.4681C248.772 65.3658 248.602 65.2136 248.386 65.0155C247.955 64.6192 247.338 64.0395 246.602 63.3083C245.13 61.8449 243.182 59.7782 241.28 57.3626C239.376 54.945 237.527 52.1903 236.242 49.351C234.955 46.5082 234.249 43.6169 234.582 40.9104L234.086 40.8493L233.59 40.7881C233.225 43.7446 234.002 46.8287 235.331 49.7635C236.661 52.7018 238.561 55.5268 240.494 57.9813C242.429 60.4375 244.405 62.5348 245.897 64.0176C246.644 64.7593 247.27 65.3482 247.71 65.7522C247.93 65.9543 248.104 66.1102 248.223 66.2159C248.283 66.2688 248.329 66.3091 248.36 66.3364C248.376 66.3501 248.387 66.3605 248.396 66.3676C248.4 66.3711 248.403 66.3738 248.405 66.3757C248.406 66.3766 248.407 66.3773 248.408 66.3779C248.408 66.3781 248.408 66.3784 248.408 66.3785C248.408 66.3787 248.409 66.3788 248.735 66ZM234.086 40.8493L234.582 40.9104C236.107 28.5365 246.494 20.5811 258.83 20.5006L258.826 20.0006L258.823 19.5006C246.06 19.5839 235.185 27.8443 233.59 40.7881L234.086 40.8493ZM258.826 20.0006L258.83 20.5006C271.263 20.4195 281.9 28.4359 283.396 40.9088L283.892 40.8493L284.389 40.7897C282.823 27.7366 271.685 19.4168 258.823 19.5006L258.826 20.0006ZM283.892 40.8493L283.396 40.9088C283.833 44.5558 282.845 48.1264 281.297 51.2946C279.749 54.4614 277.656 57.1955 275.931 59.1533L276.307 59.4838L276.682 59.8143C278.441 57.8171 280.595 55.0082 282.195 51.7337C283.795 48.4604 284.857 44.6913 284.389 40.7897L283.892 40.8493Z" fill="black"/>
<path d="M234.086 165.849L233.59 165.788L234.086 165.849ZM258.826 145.001L258.83 145.501L258.826 145.001ZM283.892 165.849L283.396 165.909L283.892 165.849ZM273.15 187.691L278.715 186.153L274.6 182.102L273.15 187.691ZM248.735 191C249.061 190.621 249.061 190.621 249.061 190.621C249.061 190.621 249.061 190.621 249.061 190.621C249.061 190.621 249.06 190.62 249.059 190.619C249.057 190.618 249.055 190.615 249.051 190.612C249.044 190.606 249.033 190.596 249.018 190.584C248.989 190.558 248.945 190.519 248.887 190.468C248.772 190.366 248.602 190.214 248.386 190.015C247.955 189.619 247.338 189.04 246.602 188.308C245.13 186.845 243.182 184.778 241.28 182.363C239.376 179.945 237.527 177.19 236.242 174.351C234.955 171.508 234.249 168.617 234.582 165.91L234.086 165.849L233.59 165.788C233.225 168.745 234.002 171.829 235.331 174.763C236.661 177.702 238.561 180.527 240.494 182.981C242.429 185.438 244.405 187.535 245.897 189.018C246.644 189.759 247.27 190.348 247.71 190.752C247.93 190.954 248.104 191.11 248.223 191.216C248.283 191.269 248.329 191.309 248.36 191.336C248.376 191.35 248.387 191.36 248.396 191.368C248.4 191.371 248.403 191.374 248.405 191.376C248.406 191.377 248.407 191.377 248.408 191.378C248.408 191.378 248.408 191.378 248.408 191.378C248.408 191.379 248.409 191.379 248.735 191ZM234.086 165.849L234.582 165.91C236.107 153.536 246.494 145.581 258.83 145.501L258.826 145.001L258.823 144.501C246.06 144.584 235.185 152.844 233.59 165.788L234.086 165.849ZM258.826 145.001L258.83 145.501C271.263 145.42 281.9 153.436 283.396 165.909L283.892 165.849L284.389 165.79C282.823 152.737 271.685 144.417 258.823 144.501L258.826 145.001ZM283.892 165.849L283.396 165.909C283.833 169.556 282.845 173.126 281.297 176.295C279.749 179.461 277.656 182.196 275.931 184.153L276.307 184.484L276.682 184.814C278.441 182.817 280.595 180.008 282.195 176.734C283.795 173.46 284.857 169.691 284.389 165.79L283.892 165.849Z" fill="black"/>
<path d="M118.086 165.396L117.59 165.334L118.086 165.396ZM142.826 145.001L142.83 145.501L142.826 145.001ZM167.892 165.396L167.396 165.457L167.892 165.396ZM157.15 186.763L162.73 185.282L158.658 181.19L157.15 186.763ZM132.735 190C133.057 189.618 133.057 189.618 133.057 189.618C133.057 189.618 133.057 189.618 133.057 189.617C133.056 189.617 133.056 189.617 133.055 189.616C133.053 189.614 133.051 189.612 133.047 189.609C133.04 189.603 133.029 189.593 133.014 189.581C132.985 189.556 132.941 189.518 132.883 189.468C132.768 189.368 132.598 189.219 132.382 189.025C131.951 188.638 131.334 188.071 130.598 187.355C129.126 185.924 127.179 183.902 125.277 181.539C123.373 179.175 121.525 176.481 120.24 173.705C118.953 170.925 118.249 168.101 118.582 165.459L118.086 165.396L117.59 165.334C117.225 168.231 118.003 171.252 119.332 174.125C120.663 177.001 122.565 179.765 124.498 182.166C126.432 184.57 128.409 186.622 129.901 188.072C130.648 188.798 131.274 189.374 131.714 189.769C131.934 189.967 132.108 190.119 132.227 190.223C132.287 190.275 132.333 190.314 132.364 190.341C132.38 190.354 132.392 190.364 132.4 190.371C132.404 190.375 132.407 190.377 132.409 190.379C132.41 190.38 132.411 190.381 132.412 190.381C132.412 190.382 132.412 190.382 132.412 190.382C132.413 190.382 132.413 190.382 132.735 190ZM118.086 165.396L118.582 165.459C120.105 153.367 130.485 145.579 142.83 145.501L142.826 145.001L142.823 144.501C130.069 144.582 119.187 152.658 117.59 165.334L118.086 165.396ZM142.826 145.001L142.83 145.501C155.272 145.421 165.901 153.269 167.396 165.457L167.892 165.396L168.389 165.335C166.821 152.552 155.676 144.419 142.823 144.501L142.826 145.001ZM167.892 165.396L167.396 165.457C167.832 169.008 166.852 172.486 165.313 175.577C163.774 178.666 161.691 181.337 159.967 183.255L160.339 183.589L160.711 183.924C162.47 181.966 164.615 179.221 166.208 176.023C167.8 172.826 168.856 169.146 168.389 165.335L167.892 165.396Z" fill="black"/>
</svg>
